<svg width="100" height="100" viewBox="0 0 100 100" fill="none" xmlns="http://www.w3.org/2000/svg">
    <path fill-rule="evenodd" clip-rule="evenodd" d="M67.5 25H51.25V45L45.625 40L40 45V25H32.5C31.1193 25 30 26.1193 30 27.5V72.5C30 73.8807 31.1193 75 32.5 75H67.5C68.8807 75 70 73.8807 70 72.5V27.5C70 26.1193 68.8807 25 67.5 25ZM40 54.1667C39.5398 54.1667 39.1667 54.5398 39.1667 55C39.1667 55.4602 39.5398 55.8333 40 55.8333H52.5C52.9602 55.8333 53.3333 55.4602 53.3333 55C53.3333 54.5398 52.9602 54.1667 52.5 54.1667H40ZM40 61.6667C39.5398 61.6667 39.1667 62.0398 39.1667 62.5C39.1667 62.9602 39.5398 63.3333 40 63.3333H60C60.4602 63.3333 60.8333 62.9602 60.8333 62.5C60.8333 62.0398 60.4602 61.6667 60 61.6667H40Z" fill="#CDDCE6"/>
</svg>
