<svg width="32" height="32" viewBox="0 0 32 32" fill="none" xmlns="http://www.w3.org/2000/svg">
    <path d="M31.8189 8.42112C31.7267 8.29019 31.6044 8.18333 31.4623 8.10953C31.3202 8.03573 31.1625 7.99716 31.0023 7.99705H9.67251L8.05792 2.42917C7.42475 0.236686 5.92018 0 5.30309 0H0.99803C0.446235 0 0 0.446738 0 0.997999C0 1.54926 0.446738 1.99597 0.997999 1.99597H5.30256C5.43874 1.99597 5.85432 1.99597 6.13777 2.97537L11.6921 23.3881C11.8127 23.8188 12.2052 24.1162 12.6529 24.1162H26.2198C26.641 24.1162 27.0168 23.8524 27.1591 23.4559L31.941 9.33268C32.0511 9.02665 32.0053 8.68594 31.8189 8.42112H31.8189ZM25.5175 22.1208H13.4104L10.2335 9.99356H29.5834L25.5175 22.1208ZM23.5381 26.1389C22.1502 26.1389 21.0255 27.2636 21.0255 28.6515C21.0255 30.0395 22.1502 31.1641 23.5381 31.1641C24.9261 31.1641 26.0507 30.0395 26.0507 28.6515C26.0507 27.2636 24.9261 26.1389 23.5381 26.1389ZM14.4928 26.1389C13.1049 26.1389 11.9802 27.2636 11.9802 28.6515C11.9802 30.0395 13.1049 31.1641 14.4928 31.1641C15.8808 31.1641 17.0054 30.0395 17.0054 28.6515C17.0054 27.2636 15.8808 26.1389 14.4928 26.1389Z" fill="#111111"/>
</svg>