<svg width="60" height="40" viewBox="0 0 60 40" fill="none" xmlns="http://www.w3.org/2000/svg">
    <path d="M58.0258 7.44869C39.2659 7.44869 20.6792 7.44869 2.09264 7.44869C1.81264 3.2487 5.13263 0.035374 9.81261 0.0220407C22.1592 -0.00462592 34.5192 0.00870758 46.8658 0.00870758C48.1192 0.00870758 49.3725 -0.0179592 50.6125 0.0220407C54.8125 0.14204 57.6925 2.9687 58.0258 7.44869Z" fill="#CDDCE6"/>
    <path d="M1.93359 33.622C1.93359 27.3954 1.93359 21.3421 1.93359 15.1421C20.6002 15.1421 39.1735 15.1421 57.9334 15.1421C57.9334 21.2087 57.9334 27.3287 57.9334 33.622C39.3868 33.622 20.7602 33.622 1.93359 33.622ZM30.2268 16.9021C24.2935 16.9021 18.3469 16.9154 12.4136 16.9021C10.8402 16.9021 9.28024 16.6221 8.96024 18.9687C8.88024 19.6087 7.57358 20.0221 6.93358 20.6487C6.41358 21.1554 5.80025 21.7687 5.65358 22.4354C5.44025 23.3954 5.65358 24.4621 5.58692 25.4754C5.48025 27.0087 5.66692 28.1821 7.57358 28.4887C8.17357 28.582 9.02691 29.462 9.1069 30.062C9.3469 31.9554 10.5202 31.9554 11.9469 31.9554C23.8269 31.9287 35.7068 31.942 47.5734 31.942C49.1468 31.942 50.7068 32.222 51.0268 29.8754C51.1068 29.2487 52.4134 28.822 53.0534 28.1954C53.5734 27.6887 54.1868 27.0754 54.3468 26.4087C54.5601 25.4487 54.3468 24.3821 54.4134 23.3687C54.5201 21.8354 54.3201 20.6887 52.4401 20.3421C51.7868 20.2221 50.9468 19.2354 50.8401 18.5554C50.5868 16.8621 49.5334 16.9021 48.3068 16.9021C42.2535 16.9021 36.2402 16.9021 30.2268 16.9021Z" fill="#CDDCE6"/>
    <path d="M30.0133 39.4219C21.1867 39.4219 12.3734 39.4752 3.54672 39.3686C2.30673 39.3552 0.0133996 40.5819 6.63124e-05 37.8086C-0.013267 35.3286 1.98673 35.6752 3.60006 35.6752C20.6133 35.6752 37.6399 35.6752 54.6532 35.6752C55.7466 35.6752 56.8399 35.6486 57.9332 35.6886C59.3865 35.7419 59.9865 36.5952 59.9999 37.9819C60.0132 39.5419 58.9066 39.4219 57.8799 39.4219C48.5866 39.4219 39.2933 39.4219 30.0133 39.4219Z" fill="#CDDCE6"/>
    <path d="M29.7461 13.142C20.7595 13.142 11.7729 13.1286 2.79957 13.1553C1.34624 13.1553 -0.0537568 12.982 0.0395762 11.1553C0.132909 9.31532 1.6529 9.38199 3.02623 9.38199C15.7595 9.39532 28.4928 9.38199 41.2261 9.38199C46.5328 9.38199 51.8527 9.39532 57.1594 9.36865C58.6127 9.36865 59.9994 9.54199 59.9194 11.3686C59.8527 13.0353 58.5061 13.142 57.1594 13.142C48.0261 13.142 38.8795 13.142 29.7461 13.142Z" fill="#CDDCE6"/>
    <path d="M30.0393 30.0352C24.3327 30.0352 18.6394 30.0886 12.9327 29.9819C12.146 29.9686 11.3327 29.2219 10.626 28.6886C10.0127 28.2352 9.61272 27.4886 8.98605 27.0486C6.78606 25.4886 6.81273 23.3019 9.07939 21.7153C9.33272 21.5419 9.70605 21.3686 9.78605 21.1286C10.7594 18.1819 13.1994 18.7819 15.3727 18.7819C25.7593 18.7819 36.146 18.7953 46.5459 18.7686C47.8393 18.7686 48.9859 18.7153 49.5193 20.2886C49.7193 20.8753 50.3993 21.3819 50.9593 21.7686C53.1593 23.3153 53.1459 25.5019 50.8659 27.1019C50.6126 27.2752 50.2393 27.4486 50.1593 27.6886C49.1193 30.7286 46.5726 30.0219 44.3459 30.0352C39.5726 30.0486 34.8126 30.0352 30.0393 30.0352Z" fill="#CDDCE6"/>
</svg>
