<svg width="100" height="100" viewBox="0 0 100 100" fill="none" xmlns="http://www.w3.org/2000/svg">
    <path d="M78.0268 37.4487C59.2668 37.4487 40.6802 37.4487 22.0936 37.4487C21.8136 33.2487 25.1336 30.0354 29.8136 30.022C42.1602 29.9954 54.5202 30.0087 66.8668 30.0087C68.1201 30.0087 69.3735 29.982 70.6135 30.022C74.8135 30.142 77.6934 32.9687 78.0268 37.4487Z" fill="#CDDCE6"/>
    <path d="M21.9336 63.622C21.9336 57.3954 21.9336 51.3421 21.9336 45.1421C40.6002 45.1421 59.1735 45.1421 77.9334 45.1421C77.9334 51.2087 77.9334 57.3287 77.9334 63.622C59.3868 63.622 40.7602 63.622 21.9336 63.622ZM50.2268 46.9021C44.2935 46.9021 38.3469 46.9154 32.4136 46.9021C30.8402 46.9021 29.2802 46.6221 28.9602 48.9687C28.8802 49.6087 27.5736 50.0221 26.9336 50.6487C26.4136 51.1554 25.8002 51.7687 25.6536 52.4354C25.4402 53.3954 25.6536 54.4621 25.5869 55.4754C25.4802 57.0087 25.6669 58.1821 27.5736 58.4887C28.1736 58.582 29.0269 59.462 29.1069 60.062C29.3469 61.9554 30.5202 61.9554 31.9469 61.9554C43.8269 61.9287 55.7068 61.942 67.5734 61.942C69.1468 61.942 70.7068 62.222 71.0268 59.8754C71.1068 59.2487 72.4134 58.822 73.0534 58.1954C73.5734 57.6887 74.1868 57.0754 74.3468 56.4087C74.5601 55.4487 74.3468 54.3821 74.4134 53.3687C74.5201 51.8354 74.3201 50.6887 72.4401 50.3421C71.7868 50.2221 70.9468 49.2354 70.8401 48.5554C70.5868 46.8621 69.5334 46.9021 68.3068 46.9021C62.2535 46.9021 56.2402 46.9021 50.2268 46.9021Z" fill="#CDDCE6"/>
    <path d="M50.0133 69.4219C41.1867 69.4219 32.3734 69.4752 23.5467 69.3686C22.3067 69.3552 20.0134 70.5819 20.0001 67.8086C19.9867 65.3286 21.9867 65.6752 23.6001 65.6752C40.6133 65.6752 57.6399 65.6752 74.6532 65.6752C75.7466 65.6752 76.8399 65.6486 77.9332 65.6886C79.3865 65.7419 79.9865 66.5952 79.9999 67.9819C80.0132 69.5419 78.9066 69.4219 77.8799 69.4219C68.5866 69.4219 59.2933 69.4219 50.0133 69.4219Z" fill="#CDDCE6"/>
    <path d="M49.7471 43.142C40.7605 43.142 31.7738 43.1286 22.8005 43.1553C21.3472 43.1553 19.9472 42.982 20.0406 41.1553C20.1339 39.3153 21.6539 39.382 23.0272 39.382C35.7605 39.3953 48.4938 39.382 61.2271 39.382C66.5337 39.382 71.8537 39.3953 77.1604 39.3687C78.6137 39.3687 80.0004 39.542 79.9204 41.3686C79.8537 43.0353 78.507 43.142 77.1604 43.142C68.0271 43.142 58.8804 43.142 49.7471 43.142Z" fill="#CDDCE6"/>
    <path d="M50.0403 60.0352C44.3337 60.0352 38.6403 60.0886 32.9337 59.9819C32.147 59.9686 31.3337 59.2219 30.627 58.6886C30.0137 58.2352 29.6137 57.4886 28.987 57.0486C26.787 55.4886 26.8137 53.3019 29.0804 51.7153C29.3337 51.5419 29.707 51.3686 29.787 51.1286C30.7604 48.1819 33.2003 48.7819 35.3737 48.7819C45.7603 48.7819 56.1469 48.7953 66.5469 48.7686C67.8402 48.7686 68.9869 48.7153 69.5202 50.2886C69.7202 50.8753 70.4002 51.3819 70.9602 51.7686C73.1602 53.3153 73.1469 55.5019 70.8669 57.1019C70.6136 57.2752 70.2402 57.4486 70.1602 57.6886C69.1202 60.7286 66.5736 60.0219 64.3469 60.0352C59.5736 60.0486 54.8136 60.0352 50.0403 60.0352Z" fill="#CDDCE6"/>
</svg>
