<svg width="100" height="100" viewBox="0 0 100 100" fill="none" xmlns="http://www.w3.org/2000/svg">
    <path d="M49.8961 37.7999C55.0427 37.7999 60.2027 37.7066 65.3494 37.8666C66.5894 37.9066 68.056 38.5599 68.9627 39.4132C71.816 42.1065 72.6027 45.7599 72.576 49.4799C72.5227 58.6932 69.6693 66.9198 63.4694 73.8931C62.6827 74.7731 62.176 76.1464 62.0827 77.3198C61.9494 79.1598 61.3494 80.0131 59.416 79.9998C52.9361 79.9464 46.4561 79.9598 39.9894 79.9998C38.2028 80.0131 37.2961 79.2531 37.4961 77.4798C37.6828 75.8398 36.9228 74.7864 35.8828 73.5998C29.0961 65.7998 26.0561 56.7332 27.2561 46.3999C27.4428 44.8132 28.0428 43.2132 28.7628 41.7732C30.0961 39.1332 31.9895 37.5066 35.3894 37.7199C40.2161 38.0266 45.0694 37.7999 49.8961 37.7999ZM49.5761 58.8932C51.7627 58.8932 53.9494 58.8665 56.136 58.9065C57.8027 58.9332 58.576 58.1332 58.576 56.5065C58.576 54.5598 58.576 52.5998 58.576 50.6532C58.5627 49.1199 57.776 48.3865 56.2427 48.3865C51.8694 48.3999 47.5094 48.3865 43.1361 48.3999C41.7094 48.3999 40.9628 49.1332 40.9361 50.5599C40.9094 52.5865 40.9094 54.6132 40.9361 56.6398C40.9494 58.1598 41.7094 58.9332 43.2694 58.9198C45.3627 58.8798 47.4694 58.8932 49.5761 58.8932Z" fill="#CDDCE6"/>
    <path d="M37.1359 30.6933C38.1759 24.36 43.4825 24.76 46.9225 23.6133C48.0825 22.1067 48.8825 21.0533 49.6825 20C50.5092 21 51.3492 22 52.1758 23C55.8558 24.7333 61.1891 24.3067 62.3225 30.56C62.2158 30.48 62.3225 30.64 62.4558 30.6533C63.8158 30.8266 65.6291 30.6 65.4558 32.6666C65.3091 34.44 63.6558 34.2933 62.3225 34.2933C53.8958 34.2933 45.4559 34.2933 37.0292 34.2933C36.5625 34.2933 35.9759 34.4133 35.6559 34.1866C35.0159 33.7466 34.5092 33.1066 33.9492 32.5466C34.5492 31.9466 35.0959 31.2666 35.7759 30.7866C36.0825 30.5866 36.6692 30.72 37.1359 30.6933Z" fill="#CDDCE6"/>
    <path d="M44.6289 51.9731C48.1222 51.9731 51.4289 51.9731 54.8555 51.9731C54.8555 53.0531 54.8555 54.0265 54.8555 55.1998C51.4556 55.1998 48.1089 55.1998 44.6289 55.1998C44.6289 54.1465 44.6289 53.1598 44.6289 51.9731Z" fill="#CDDCE6"/>
</svg>
