<svg width="100" height="100" viewBox="0 0 100 100" fill="none" xmlns="http://www.w3.org/2000/svg">
    <path d="M29.6982 33.53C30.7764 35.5688 32.1602 37.484 32.8611 39.6876C33.8854 42.8384 35.5387 44.2388 38.468 44.28C40.0853 44.3006 42.745 43.8475 42.5474 46.8337C42.3317 49.9845 39.7439 48.6665 38.1984 48.44C35.3231 48.0281 31.8727 48.8107 30.4709 44.1359C30.1654 44.9184 30.0576 45.2273 29.9318 45.5156C28.1527 49.9022 28.584 53.5061 32.4837 56.1833C34.9816 57.9132 36.0958 60.6934 36.617 63.9472C37.1381 67.1393 38.0187 70.2695 38.6836 73.441C39.1329 75.624 38.5398 77.7039 36.5271 77.7863C35.3949 77.8275 33.6338 76.3653 33.1845 75.0885C32.0883 71.9788 31.639 68.5808 30.8303 65.327C30.5428 64.1326 30.0037 63.0205 28.8715 61.9702C28.1527 65.883 27.4338 69.7753 26.715 73.6881C26.2837 76.0358 25.6547 78.5071 22.9771 77.9099C20.3533 77.2715 20.2994 74.9032 20.9823 72.4319C21.0722 72.0818 21.0182 71.6905 21.144 71.361C23.5521 64.9151 22.3121 59.952 16.9928 56.1009C15.9864 55.3801 15.7168 52.8265 15.627 51.076C15.5551 49.5932 16.4896 48.0693 16.5435 46.5453C16.5794 45.3715 16.22 43.7446 15.5012 43.065C13.9737 41.6234 13.9018 40.3878 15.1418 38.8226C15.2136 38.7403 15.2855 38.6579 15.3394 38.5343C18.2507 32.6239 22.42 30.9558 27.9011 33.5712C28.5121 33.5506 29.1051 33.5506 29.6982 33.53Z" fill="#CDDCE6"/>
    <path d="M75.5599 39.8927C74.9489 40.2017 74.3199 40.5106 72.8643 41.2314C74.0503 37.6892 74.7332 34.8472 75.9193 32.2936C77.0694 29.8223 80.3761 29.5546 82.6045 31.7376C86.6299 35.7328 89.1279 40.9018 89.9725 46.8947C90.1882 48.3774 89.074 50.1485 88.463 51.7342C88.2653 52.2285 87.7082 52.558 87.3308 52.9699C85.0665 55.4617 81.5622 57.5829 80.9152 60.5279C80.2683 63.4934 82.4966 67.2827 83.4132 70.7218C84.0961 73.2549 85.8572 76.3646 82.3169 77.662C79.0822 78.8358 78.7048 75.3967 77.95 72.9666C76.7819 69.2185 75.7037 65.4498 74.4996 61.7223C73.7089 59.2716 73.9785 57.2946 75.8834 55.6677C77.0515 54.6586 77.968 53.217 79.208 52.3521C82.299 50.2103 82.263 47.6772 80.3401 44.6293C79.8729 43.888 79.6752 42.8995 79.3517 42.0139C80.1065 40.4488 81.0051 38.9454 81.5622 37.2979C81.8497 36.4536 81.7598 34.6619 81.4004 34.4765C80.6097 34.0853 79.1002 34.0235 78.6329 34.6001C77.4289 36.1241 76.5663 38.1011 75.5599 39.8927Z" fill="#CDDCE6"/>
    <path d="M46.6989 60.2404V76.798H40.6428C39.0434 69.899 37.4439 63.0412 35.8086 56.0599C35.9703 56.0393 36.9408 55.8951 37.9292 55.8951C47.4178 55.8745 56.9064 55.8745 66.395 55.8951C67.024 55.8951 67.7788 55.6892 68.264 55.9981C68.4617 56.1217 68.6414 56.2452 68.8211 56.3894C70.1509 57.4191 69.7556 59.8492 68.1742 60.1581C68.1202 60.1581 68.0663 60.1787 68.0304 60.1787C65.209 60.4464 62.3516 60.261 59.4942 60.261C55.3969 60.2404 51.2995 60.2404 46.6989 60.2404Z" fill="#CDDCE6"/>
    <path d="M30.6509 48.6458C34.281 49.1607 37.6056 49.6549 40.9302 50.0462C41.4873 50.108 42.296 49.8608 42.6554 49.4078C46.1058 45.0419 50.4907 47.5955 54.4264 47.5337C55.3069 47.5131 56.8524 50.1286 56.9603 51.6319C57.104 53.7325 55.882 55.3594 53.5098 55.2153C46.9145 54.8446 40.3192 54.6798 33.7239 54.3503C30.7947 54.1856 29.6805 51.7555 30.6509 48.6458Z" fill="#CDDCE6"/>
    <path d="M75.5599 39.8934C76.5663 38.1017 77.4289 36.1247 78.6689 34.5801C79.1361 34.0035 80.6277 34.0653 81.4364 34.4566C81.7958 34.6419 81.8857 36.4336 81.5981 37.278C81.041 38.9255 80.1425 40.4288 79.3877 41.994C76.8359 45.8038 76.8359 45.8038 72.5768 45.7832C72.6127 46.2775 72.7744 47.163 72.6666 47.2042C71.3188 47.7603 70.2405 50.3757 68.4435 48.1104C68.2098 47.5955 67.9582 47.1013 67.7246 46.5864C68.1559 46.1127 68.5872 45.6391 69.0545 45.1448C68.2098 45.0213 67.0597 45.1036 66.1252 44.6506C65.3884 44.3005 64.9212 43.2502 64.3281 42.5088C65.047 41.8498 65.7658 40.6554 66.5026 40.6142C68.4614 40.5524 70.4382 41.1908 72.397 41.1496C73.4753 41.1702 74.5176 40.3464 75.5599 39.8934Z" fill="#CDDCE6"/>
    <path d="M67.7244 46.6069C67.958 47.1217 68.2096 47.616 68.4432 48.1308C68.5151 49.3253 68.6948 50.5403 68.6409 51.7348C68.5331 53.9383 67.7244 55.4211 65.496 55.174C64.4537 55.071 63.3575 55.3593 62.3331 55.1122C61.1111 54.8239 59.2601 54.5973 58.9726 53.6088C58.4155 51.5906 58.703 48.934 59.7633 47.2659C60.3024 46.4216 62.2253 46.1744 63.5551 46.092C64.9209 45.9891 66.3226 46.4216 67.7244 46.6069Z" fill="#CDDCE6"/>
    <path d="M29.699 33.5295C29.106 33.5501 28.4949 33.5501 27.9019 33.5707C27.2729 33.2 26.6619 32.747 25.979 32.4998C23.1756 31.4084 22.5286 29.5549 23.9663 26.5894C25.3141 23.7886 28.6028 22.7589 31.0828 24.3447C33.4729 25.8686 34.3894 29.3284 33.2033 32.1497C32.4126 33.9826 31.3703 34.7034 29.699 33.5295Z" fill="#CDDCE6"/>
    <path d="M70.5106 28.9782C69.3425 30.1315 68.1744 31.2848 67.0063 32.438C64.6162 29.8432 64.1849 27.2484 65.8561 24.6329C67.4735 22.0999 69.6839 21.3379 72.1819 22.5941C72.739 22.8824 72.9007 24.221 73.2422 25.086C72.3257 26.3834 71.4271 27.6808 70.5106 28.9782Z" fill="#CDDCE6"/>
    <path d="M18.5924 60.2395C15.8429 60.2395 13.6325 60.4042 11.458 60.1571C11.3322 60.1365 11.2064 60.1159 11.0986 60.0541C9.84062 59.4775 9.62497 57.5417 10.6493 56.5532C10.9009 56.306 11.1525 56.1207 11.44 56.0383C14.5131 55.0498 16.5258 57.068 18.5924 60.2395Z" fill="#CDDCE6"/>
    <path d="M70.5107 28.9783C71.4273 27.6809 72.3258 26.3835 73.2423 25.0861C75.9559 25.0655 75.5785 27.3926 75.1832 29.0607C74.8058 30.6464 73.7275 32.0056 72.5954 34.168C71.6609 31.8821 71.0858 30.4199 70.5107 28.9783Z" fill="#CDDCE6"/>
    <path d="M14.3151 49.8599C14.2073 51.7751 14.1175 53.299 13.9917 55.8115C12.7517 54.8642 11.314 54.3493 11.1882 53.5462C10.8288 51.3014 11.943 49.9834 14.3151 49.8599Z" fill="#CDDCE6"/>
</svg>
