<svg width="60" height="60" viewBox="0 0 60 60" fill="none" xmlns="http://www.w3.org/2000/svg">
<path d="M32.4727 0.0133304C33.699 0.239947 34.9388 0.386581 36.1385 0.71984C43.6035 2.74606 49.0423 9.27794 49.7222 16.9429C49.7755 17.5294 49.8155 18.116 49.8155 18.6892C49.8155 25.3677 49.8155 32.0462 49.8155 38.7114C49.8155 38.8714 49.8155 39.018 49.8155 39.2179C36.6184 39.2179 23.448 39.2179 10.2109 39.2179C10.2109 39.018 10.2109 38.8047 10.2109 38.6048C10.2109 32.0196 10.2109 25.4477 10.2109 18.8625C10.2243 9.82448 16.1963 2.37281 25.021 0.413242C25.8475 0.226616 26.7139 0.133304 27.5537 0C29.1801 0.0133304 30.833 0.0133304 32.4727 0.0133304ZM30.0065 16.0498C27.6871 16.0498 25.3676 16.0498 23.0348 16.0498C22.7681 16.0498 22.4882 16.0631 22.2349 16.1431C21.4084 16.4097 20.9419 17.2228 21.0885 18.076C21.2352 18.9691 21.955 19.5423 22.9814 19.5557C27.6471 19.569 32.3127 19.5557 36.9783 19.5557C38.1647 19.5557 38.9645 18.8358 38.9645 17.7827C38.9645 16.7296 38.1781 16.0364 36.9783 16.0364C34.6455 16.0364 32.326 16.0498 30.0065 16.0498ZM30.0065 23.0749C27.7004 23.0749 25.3942 23.0749 23.1014 23.0749C22.8348 23.0749 22.5549 23.0749 22.2883 23.1549C21.4618 23.3948 20.9552 24.1946 21.0752 25.0478C21.1952 25.9676 21.9283 26.5808 22.9814 26.5808C27.6471 26.5808 32.3127 26.5808 36.9783 26.5808C38.1647 26.5808 38.9645 25.8609 38.9645 24.8212C38.9645 23.7681 38.1781 23.0749 36.9783 23.0749C34.6588 23.0749 32.326 23.0749 30.0065 23.0749ZM30.0465 30.1C27.6604 30.1 25.2876 30.1 22.9014 30.1C21.835 30.1 21.0752 30.8198 21.0485 31.8063C21.0219 32.806 21.795 33.6059 22.8748 33.6059C27.6204 33.6192 32.366 33.6192 37.0983 33.6059C37.6715 33.6059 38.1781 33.4059 38.538 32.9527C38.9779 32.4061 39.0712 31.7796 38.7913 31.1397C38.4847 30.4466 37.9381 30.1 37.1783 30.1C34.8055 30.1 32.4327 30.1 30.0465 30.1Z" fill="#559DD2"/>
<path d="M0.0133304 53.908C0.439902 52.8949 1.19973 52.575 2.27949 52.575C20.7554 52.6016 39.2446 52.6016 57.7205 52.575C58.8003 52.575 59.5734 52.8949 59.9867 53.908C59.9867 55.9342 59.9867 57.9738 59.9867 60C39.9911 60 19.9956 60 0 60C0.0133304 57.9738 0.0133304 55.9342 0.0133304 53.908Z" fill="#559DD2"/>
<path d="M3.75854 49.029C3.75854 47.4294 3.71855 45.8697 3.77187 44.3101C3.79853 43.4969 4.5317 42.8704 5.38484 42.7904C5.55814 42.7771 5.73143 42.7771 5.91806 42.7771C21.9812 42.7771 38.0576 42.7771 54.1207 42.7904C54.6406 42.7904 55.2138 42.9504 55.6403 43.2303C55.9469 43.4303 56.2269 43.9235 56.2402 44.2968C56.3069 45.8564 56.2669 47.4161 56.2669 49.0157C38.7641 49.029 21.3013 49.029 3.75854 49.029Z" fill="#559DD2"/>
</svg>
