<svg width="100" height="100" viewBox="0 0 100 100" fill="none" xmlns="http://www.w3.org/2000/svg">
    <g clip-path="url(#clip0_63_3041)">
        <path d="M49.7328 87.4226C35.1765 87.3111 23.2951 75.2737 23.3843 60.6951C23.4735 46.1833 35.5554 34.1682 50.0672 34.2128C64.7796 34.2574 76.8393 46.5177 76.6164 61.2301C76.3935 75.831 64.3784 87.534 49.7328 87.4226ZM68.1902 60.918C68.2125 50.7085 60.1207 42.5944 49.9558 42.6167C39.9692 42.639 31.9219 50.597 31.8105 60.5836C31.699 70.8823 39.5902 78.9741 49.822 79.0633C60.0761 79.1524 68.1679 71.1721 68.1902 60.918Z" fill="#CDDCE6"/>
        <path d="M36.4238 11.5419C43.5794 11.4973 47.4804 7.99753 49.8433 1.66675C52.652 7.50712 56.0404 11.9208 63.3074 10.8063C63.352 11.2298 58.8714 16.0671 58.0466 18.5637C57.2441 21.0158 58.3364 24.0697 58.7376 28.4165C52.8304 24.4041 47.3467 23.2672 41.484 27.9707C43.4679 21.0381 41.7292 16.0002 36.4238 11.5419Z" fill="#CDDCE6"/>
        <path d="M73.1162 26.5438C80.2718 26.4993 84.1728 22.9995 86.5357 16.6687C89.3444 22.5091 92.7327 26.9228 99.9998 25.8082C100.044 26.2318 95.5638 31.069 94.739 33.5657C93.9365 36.0177 95.0288 39.0717 95.43 43.4185C89.5228 39.406 84.039 38.2692 78.1764 42.9727C80.1603 36.04 78.4216 30.9798 73.1162 26.5438Z" fill="#CDDCE6"/>
        <path d="M0 26.5438C7.15557 26.4993 11.0566 22.9995 13.4195 16.6687C16.2282 22.5091 19.6165 26.9228 26.8836 25.8082C26.9281 26.2318 22.4475 31.069 21.6228 33.5657C20.8203 36.0177 21.9125 39.0717 22.3138 43.4185C16.4065 39.406 10.9228 38.2692 5.06017 42.9727C7.04412 36.04 5.30538 30.9798 0 26.5438Z" fill="#CDDCE6"/>
        <path d="M67.1197 97.7428C64.846 93.8195 63.3747 91.2783 61.9258 88.7816C65.5147 86.2181 68.8361 83.8552 72.6257 81.158C74.5428 84.3902 76.5044 87.734 79.0011 91.9693C73.7403 91.2114 68.9699 90.4981 67.1197 97.7428Z" fill="#CDDCE6"/>
        <path d="M38.0742 88.7815C36.6253 91.3004 35.1763 93.8194 33.3261 97.0739C30.7403 91.9023 26.9954 90.2304 20.7314 92.571C23.3618 87.979 25.2789 84.6353 27.3074 81.1355C30.941 83.7213 34.3738 86.1511 38.0742 88.7815Z" fill="#CDDCE6"/>
        <path d="M64.8906 61.1409C64.7569 69.4779 57.8688 76.0985 49.621 75.831C41.2616 75.5858 34.8863 68.7869 35.1092 60.383C35.3321 52.1797 41.8635 45.9158 50.1559 45.9827C58.5598 46.0496 65.0244 52.6924 64.8906 61.1409ZM45.7868 69.4334C46.2104 70.1467 47.2135 70.2582 47.7931 69.634C51.2928 65.8221 54.1907 62.7459 56.9326 59.5136L56.9549 59.4914C58.0471 58.1539 56.353 56.2591 54.904 57.2176C54.7926 57.2845 54.6811 57.3737 54.5697 57.4628C51.9839 59.7589 49.621 62.2778 47.0128 64.8636C46.0766 63.3478 45.6085 62.2555 44.8283 61.4753C44.6945 61.3415 44.5385 61.2301 44.3825 61.1186C43.1787 60.2939 41.5514 61.4307 42.0418 62.7905C42.0641 62.8351 42.0864 62.8797 42.0864 62.9242C43.0004 64.8636 44.1595 66.6915 45.7868 69.4334Z" fill="#CDDCE6"/>
    </g>
    <defs>
        <clipPath id="clip0_63_3041">
            <rect width="100" height="100" fill="white"/>
        </clipPath>
    </defs>
</svg>
