<svg width="100" height="100" viewBox="0 0 100 100" fill="none" xmlns="http://www.w3.org/2000/svg">
    <path fill-rule="evenodd" clip-rule="evenodd" d="M30 10C28.8954 10 28 10.8954 28 12V23V51C28 52.1046 28.8954 53 30 53H69C70.1046 53 71 52.1046 71 51V12C71 10.8954 70.1046 10 69 10H40H30ZM39.0295 14H42.3944L42.9306 14.3574L32.2623 25.7878L32 25.3945V21.6153L39.0295 14ZM36.3077 14H34C32.8954 14 32 14.8954 32 16V18.6667L36.3077 14ZM32 29V47C32 48.1046 32.8954 49 34 49H37V41.5C37 34.5964 42.5964 29 49.5 29C56.4036 29 62 34.5964 62 41.5V49H65C66.1046 49 67 48.1046 67 47V16C67 14.8954 66.1046 14 65 14H46L44.617 15.4817L33.4022 27.4977L32 29ZM23.8 54.2333C24.7818 55.22 25.2727 56.4533 25.2727 57.9333V75.2L27.2364 80.38L29.4455 79.64L27.7273 75.2V68.2933C27.7273 67.5533 28.2182 66.5667 28.7091 66.0733C29.2 65.58 29.9364 65.3333 30.6727 65.3333C31.9 65.3333 32.8818 66.0733 33.3727 67.3067L40 85.3133V90H17.9091L13 72.7333L20.3636 53C21.5909 53 22.8182 53.4933 23.8 54.2333ZM76.2 54.2333C75.2182 55.22 74.7273 56.4533 74.7273 57.9333V75.2L72.7636 80.38L70.5545 79.64L72.2727 75.2V68.2933C72.2727 67.5533 71.7818 66.5667 71.2909 66.0733C70.8 65.58 70.0636 65.3333 69.3273 65.3333C68.1 65.3333 67.1182 66.0733 66.6273 67.3067L60 85.3133V90H82.0909L87 72.7333L79.6364 53C78.4091 53 77.1818 53.4933 76.2 54.2333ZM49 29C52.3137 29 55 26.3137 55 23C55 19.6863 52.3137 17 49 17C45.6863 17 43 19.6863 43 23C43 26.3137 45.6863 29 49 29Z" fill="#CDDCE6"/>
</svg>
