<svg width="80" height="39" viewBox="0 0 80 39" fill="none" xmlns="http://www.w3.org/2000/svg">
    <path d="M70.3905 33.1608C69.9905 36.504 67.863 38.6316 64.9517 38.6796C61.9283 38.7275 59.7848 36.68 59.2729 33.2088C47.3716 33.2088 35.4702 33.2088 23.5689 33.2088C22.881 36.792 20.8815 38.7275 17.8901 38.6796C14.9788 38.6476 12.9632 36.664 12.3714 33.1608C11.2196 33.1608 10.0359 33.1608 8.86814 33.1608C6.48467 33.1608 4.1012 33.1608 1.71773 33.1608C0.533992 33.1608 0.0381026 32.6649 0.0381026 31.4812C0.0381026 27.562 -0.0738725 23.6589 0.086092 19.7398C0.166074 17.9322 0.72595 16.1246 1.10986 14.333C1.94168 10.3978 2.78949 6.46272 3.6533 2.54359C4.03721 0.783985 4.981 0.0161549 6.8046 0.0161549C16.6584 0.0161549 26.4962 0.0321528 36.35 0.000159955C39.7573 -0.0158365 42.6046 1.1679 44.9881 3.58336C49.947 8.59025 54.9379 13.5491 59.8968 18.556C60.4887 19.1479 61.1125 19.4198 61.9123 19.5318C67.1112 20.2517 72.31 21.0035 77.5089 21.7713C79.1405 22.0113 80.0043 23.099 79.9883 24.8906C79.4924 24.8906 78.9965 24.8906 78.4847 24.8906C76.5491 24.8906 75.9092 25.2266 75.8772 26.2503C75.8612 27.2901 76.5331 27.658 78.5166 27.658C78.9805 27.658 79.4285 27.658 79.9723 27.658C79.9723 29.1617 80.0523 30.6174 79.9403 32.057C79.8764 32.8888 79.1725 33.1928 78.3567 33.1768C76.0052 33.1608 73.6537 33.1768 71.2863 33.1768C70.9983 33.1608 70.7104 33.1608 70.3905 33.1608ZM56.7775 19.3239C55.1938 17.7402 53.7542 16.3005 52.3145 14.8609C51.0508 13.6131 49.787 12.3494 48.5233 11.1017C46.7477 11.0857 44.9721 11.0697 43.1965 11.0697C42.6046 11.0697 42.0128 11.0697 41.4529 11.0697C41.4529 13.9011 41.4529 16.6205 41.4529 19.3239C46.5398 19.3239 51.5466 19.3239 56.7775 19.3239ZM38.6055 11.0537C36.1261 11.0537 33.7106 11.0377 31.3111 11.0857C31.1032 11.0857 30.8153 11.4056 30.7193 11.6296C30.0634 13.3092 29.4396 15.0048 28.7997 16.7004C28.4798 17.5483 28.1758 18.4121 27.8399 19.2919C31.4871 19.2919 35.0223 19.2919 38.6055 19.2919C38.6055 16.5565 38.6055 13.8691 38.6055 11.0537ZM19.2978 8.27032C18.354 8.27032 17.5062 8.27032 16.5624 8.27032C16.5624 7.34253 16.5624 6.46272 16.5624 5.59891C15.6026 5.59891 14.7228 5.59891 13.795 5.59891C13.795 6.51071 13.795 7.37452 13.795 8.31831C12.8672 8.31831 11.9874 8.31831 11.1396 8.31831C11.1396 9.29409 11.1396 10.1579 11.1396 11.0857C12.0514 11.0857 12.8992 11.0857 13.843 11.0857C13.843 12.9413 13.843 14.7329 13.843 16.5085C14.8028 16.5085 15.6826 16.5085 16.6104 16.5085C16.6104 14.6689 16.6104 12.8933 16.6104 11.0377C17.5382 11.0377 18.418 11.0377 19.2978 11.0377C19.2978 10.0939 19.2978 9.2461 19.2978 8.27032ZM20.7055 33.2888C20.7695 31.7851 19.6018 30.4894 18.0981 30.4094C16.5624 30.3294 15.2507 31.5451 15.2027 33.0808C15.1547 34.5845 16.3385 35.8642 17.8421 35.9282C19.3458 35.9762 20.6575 34.7764 20.7055 33.2888ZM67.5751 33.1608C67.5751 31.6571 66.3594 30.4094 64.8557 30.3934C63.32 30.3774 62.0563 31.6411 62.0723 33.1928C62.0883 34.6964 63.336 35.9122 64.8397 35.9122C66.3434 35.9122 67.5751 34.6645 67.5751 33.1608ZM29.6155 24.8586C29.9035 24.8586 30.1914 24.8906 30.4793 24.8586C31.2312 24.7787 31.759 24.1868 31.7431 23.4669C31.7271 22.7471 31.1992 22.1712 30.4313 22.1232C29.9195 22.0912 29.3916 22.0753 28.8797 22.1232C28.1279 22.1872 27.6 22.7791 27.616 23.4989C27.632 24.2188 28.1598 24.7787 28.9117 24.8586C29.1516 24.8906 29.3756 24.8586 29.6155 24.8586ZM43.5324 24.8586C43.7084 24.8746 43.8844 24.8746 44.0443 24.8746C44.9241 24.8266 45.5 24.2828 45.516 23.4989C45.516 22.7151 44.9401 22.1552 44.0603 22.1232C43.5804 22.1072 43.0845 22.0753 42.6046 22.1392C41.8528 22.2512 41.4049 22.7151 41.4049 23.4829C41.4049 24.2508 41.8528 24.7147 42.5886 24.8426C42.8926 24.9066 43.2285 24.8586 43.5324 24.8586Z" fill="#81888D"/>
</svg>