<svg width="100" height="100" viewBox="0 0 100 100" fill="none" xmlns="http://www.w3.org/2000/svg">
<path d="M47 65H53V47H47V65ZM50 41C50.85 41 51.563 40.712 52.139 40.136C52.715 39.56 53.002 38.848 53 38C53 37.15 52.712 36.438 52.136 35.864C51.56 35.29 50.848 35.002 50 35C49.15 35 48.438 35.288 47.864 35.864C47.29 36.44 47.002 37.152 47 38C47 38.85 47.288 39.563 47.864 40.139C48.44 40.715 49.152 41.002 50 41ZM50 80C45.85 80 41.95 79.212 38.3 77.636C34.65 76.06 31.475 73.923 28.775 71.225C26.075 68.525 23.938 65.35 22.364 61.7C20.79 58.05 20.002 54.15 20 50C20 45.85 20.788 41.95 22.364 38.3C23.94 34.65 26.077 31.475 28.775 28.775C31.475 26.075 34.65 23.938 38.3 22.364C41.95 20.79 45.85 20.002 50 20C54.15 20 58.05 20.788 61.7 22.364C65.35 23.94 68.525 26.077 71.225 28.775C73.925 31.475 76.063 34.65 77.639 38.3C79.215 41.95 80.002 45.85 80 50C80 54.15 79.212 58.05 77.636 61.7C76.06 65.35 73.923 68.525 71.225 71.225C68.525 73.925 65.35 76.063 61.7 77.639C58.05 79.215 54.15 80.002 50 80Z" fill="#CDDCE6"/>
</svg>
