<svg width="46" height="46" viewBox="0 0 46 46" fill="none" xmlns="http://www.w3.org/2000/svg">
    <path fill-rule="evenodd" clip-rule="evenodd" d="M5.5 0.5H40.5C41.8261 0.5 43.0979 1.02678 44.0355 1.96447C44.9732 2.90215 45.5 4.17392 45.5 5.5V40.5C45.5 43.275 43.275 45.5 40.5 45.5H5.5C4.17392 45.5 2.90215 44.9732 1.96447 44.0355C1.02678 43.0979 0.5 41.8261 0.5 40.5V5.5C0.5 2.725 2.725 0.5 5.5 0.5ZM24.4998 11V8.5C24.4998 8.10218 24.3418 7.72064 24.0605 7.43934C23.7792 7.15804 23.3976 7 22.9998 7C22.602 7 22.2205 7.15804 21.9392 7.43934C21.6578 7.72064 21.4998 8.10218 21.4998 8.5V11H19.5318C18.9218 11 18.3238 11.16 17.7938 11.46L15.2178 12.934C15.1417 12.9776 15.0555 13.0004 14.9678 13H10.4998C10.102 13 9.72046 13.158 9.43915 13.4393C9.15785 13.7206 8.99981 14.1022 8.99981 14.5C8.99981 14.8978 9.15785 15.2794 9.43915 15.5607C9.72046 15.842 10.102 16 10.4998 16H11.3558L7.13181 25.384C7.00705 25.6616 6.96969 25.9706 7.02471 26.27C7.07972 26.5693 7.2245 26.8449 7.43981 27.06V27.062L7.44781 27.07L7.45981 27.082L7.49181 27.112L7.58181 27.192C8.00276 27.5441 8.46318 27.8461 8.95381 28.092C10.2134 28.7056 11.5988 29.0165 12.9998 29C14.7598 29 16.1118 28.56 17.0458 28.092C17.5358 27.846 17.9978 27.544 18.4178 27.192L18.5078 27.112L18.5398 27.082L18.5518 27.07L18.5558 27.066L18.5578 27.062L17.4998 26L18.5598 27.06C18.7751 26.8449 18.9199 26.5693 18.9749 26.27C19.0299 25.9706 18.9926 25.6616 18.8678 25.384L14.6438 16H14.9678C15.5778 16 16.1758 15.84 16.7058 15.54L19.2838 14.066C19.3591 14.0224 19.4447 13.9996 19.5318 14H21.4998V33H16.4998C16.102 33 15.7205 33.158 15.4392 33.4393C15.1578 33.7206 14.9998 34.1022 14.9998 34.5C14.9998 34.8978 15.1578 35.2794 15.4392 35.5607C15.7205 35.842 16.102 36 16.4998 36H29.4998C29.8976 36 30.2792 35.842 30.5605 35.5607C30.8418 35.2794 30.9998 34.8978 30.9998 34.5C30.9998 34.1022 30.8418 33.7206 30.5605 33.4393C30.2792 33.158 29.8976 33 29.4998 33H24.4998V14H26.4678C26.5549 13.9996 26.6405 14.0224 26.7158 14.066L29.2958 15.538C29.8238 15.842 30.4218 16 31.0318 16H31.3558L27.1318 25.384C27.007 25.6616 26.9697 25.9706 27.0247 26.27C27.0797 26.5693 27.2245 26.8449 27.4398 27.06V27.062L27.4478 27.07L27.4598 27.082L27.4918 27.112L27.5818 27.192C28.0028 27.5441 28.4632 27.8461 28.9538 28.092C30.2134 28.7056 31.5988 29.0165 32.9998 29C34.7598 29 36.1118 28.56 37.0458 28.092C37.5358 27.846 37.9978 27.544 38.4178 27.192L38.5078 27.112L38.5278 27.092L38.5398 27.082L38.5518 27.07L38.5558 27.066L38.5598 27.06C38.7751 26.8449 38.9199 26.5693 38.9749 26.27C39.0299 25.9706 38.9926 25.6616 38.8678 25.384L34.6458 16H35.4998C35.8976 16 36.2792 15.842 36.5605 15.5607C36.8418 15.2794 36.9998 14.8978 36.9998 14.5C36.9998 14.1022 36.8418 13.7206 36.5605 13.4393C36.2792 13.158 35.8976 13 35.4998 13H31.0318C30.9438 13 30.8598 12.978 30.7838 12.934L28.2038 11.462C27.6758 11.16 27.0778 11 26.4698 11H24.4998Z" fill="#CDDCE6"/>
</svg>
