<svg width="10" height="14" viewBox="0 0 10 14" fill="none" xmlns="http://www.w3.org/2000/svg">
    <path fill-rule="evenodd" clip-rule="evenodd" d="M0.500041 4.66766C0.500041 2.18238 2.51476 0.167664 5.00004 0.167664C7.48532 0.167664 9.50004 2.18238 9.50004 4.66766C9.50004 6.18616 8.69713 7.55434 7.7024 8.66042C6.71302 9.76055 5.58495 10.5438 5.05173 10.8838C5.01878 10.9048 4.9813 10.9048 4.94835 10.8838C4.41512 10.5438 3.28706 9.76055 2.29768 8.66042C1.30295 7.55434 0.500041 6.18616 0.500041 4.66766ZM5.00004 2.83433C3.98752 2.83433 3.16671 3.65514 3.16671 4.66766C3.16671 5.68018 3.98752 6.501 5.00004 6.501C6.01256 6.501 6.83337 5.68018 6.83337 4.66766C6.83337 3.65514 6.01256 2.83433 5.00004 2.83433Z" fill="#E4583E"/>
    <path d="M0.333374 12.001C0.333374 11.3651 1.33048 10.8124 2.79675 10.5314C3.45748 11.0935 4.05723 11.5016 4.41074 11.727C4.7716 11.9571 5.22848 11.9571 5.58934 11.727C5.94285 11.5016 6.5426 11.0935 7.20333 10.5314C8.6696 10.8124 9.66671 11.3651 9.66671 12.001C9.66671 12.9215 7.57737 13.6677 5.00004 13.6677C2.42271 13.6677 0.333374 12.9215 0.333374 12.001Z" fill="#E4583E"/>
</svg>
