<svg width="29" height="28" viewBox="0 0 29 28" fill="none" xmlns="http://www.w3.org/2000/svg">
    <path d="M21.3334 21V22.75H23.4859C22.9968 23.3018 22.3958 23.7433 21.723 24.045C21.0501 24.3467 20.3208 24.5018 19.5834 24.5C18.1915 24.4984 16.8571 23.9447 15.8729 22.9605C14.8887 21.9763 14.335 20.6419 14.3334 19.25H12.5834C12.5805 20.6734 13.0125 22.0636 13.8215 23.2347C14.6306 24.4058 15.778 25.3019 17.1103 25.8029C18.4426 26.3039 19.8961 26.3861 21.2763 26.0383C22.6565 25.6905 23.8976 24.9294 24.8334 23.8569V26.25H26.5834V21H21.3334ZM19.5834 12.25C18.5889 12.2551 17.6067 12.4711 16.7018 12.8836C15.7968 13.2961 14.9896 13.8958 14.3334 14.6431V12.25H12.5834V17.5H17.8334V15.75H15.6809C16.17 15.1982 16.7709 14.7567 17.4438 14.455C18.1166 14.1533 18.846 13.9982 19.5834 14C20.9753 14.0016 22.3097 14.5553 23.2939 15.5395C24.2781 16.5237 24.8318 17.8581 24.8334 19.25H26.5834C26.5811 17.3942 25.8428 15.6151 24.5306 14.3028C23.2183 12.9906 21.4392 12.2523 19.5834 12.25Z" fill="#809099"/>
    <path d="M10.8334 24.5H5.58337V21H7.33337V19.25H5.58337V14.875H7.33337V13.125H5.58337V8.75H7.33337V7H5.58337V3.5H21.3334V10.5H23.0834V3.5C23.0834 3.03587 22.899 2.59075 22.5708 2.26256C22.2426 1.93437 21.7975 1.75 21.3334 1.75H5.58337C5.11925 1.75 4.67413 1.93437 4.34594 2.26256C4.01775 2.59075 3.83337 3.03587 3.83337 3.5V7H2.08337V8.75H3.83337V13.125H2.08337V14.875H3.83337V19.25H2.08337V21H3.83337V24.5C3.83337 24.9641 4.01775 25.4092 4.34594 25.7374C4.67413 26.0656 5.11925 26.25 5.58337 26.25H10.8334V24.5Z" fill="#809099"/>
</svg>
