<svg width="29" height="28" viewBox="0 0 29 28" fill="none" xmlns="http://www.w3.org/2000/svg">
    <path d="M23.9579 6.61183C23.4472 6.10083 22.8407 5.69547 22.1733 5.41891C21.5058 5.14235 20.7904 5 20.0679 5C19.3454 5 18.63 5.14235 17.9626 5.41891C17.2951 5.69547 16.6887 6.10083 16.1779 6.61183L15.1179 7.67183L14.0579 6.61183C13.0262 5.58013 11.6269 5.00053 10.1679 5.00053C8.70888 5.00053 7.30961 5.58013 6.27792 6.61183C5.24622 7.64352 4.66663 9.04279 4.66663 10.5018C4.66663 11.9609 5.24622 13.3601 6.27792 14.3918L7.33792 15.4518L15.1179 23.2318L22.8979 15.4518L23.9579 14.3918C24.4689 13.8811 24.8743 13.2746 25.1508 12.6072C25.4274 11.9397 25.5697 11.2243 25.5697 10.5018C25.5697 9.77934 25.4274 9.06393 25.1508 8.39647C24.8743 7.72901 24.4689 7.12258 23.9579 6.61183V6.61183Z" stroke="#809099" stroke-width="2" stroke-linecap="round" stroke-linejoin="round"/>
</svg>
