<svg width="100" height="100" viewBox="0 0 100 100" fill="none" xmlns="http://www.w3.org/2000/svg">
    <path d="M76.1032 51.7984C75.7213 50.7074 74.6849 49.9983 73.4576 49.9983H53.8474C52.5928 49.9983 51.5836 50.7074 51.1745 51.7984L47.2743 63.0081V78.0363C47.2743 79.0727 48.1471 80 49.1835 80H50.8745C51.9109 80 52.7291 78.9636 52.7291 77.9272V74.5451H74.5485V77.9272C74.5485 78.9636 75.3941 80 76.4305 80H78.0942C79.1306 80 80.0034 79.0727 80.0034 78.0363V63.0081L76.1032 51.7984ZM53.8474 52.7257H73.4576L76.2668 60.908H51.0381L53.8474 52.7257ZM52.7291 69.0903C51.229 69.0903 50.0017 67.8629 50.0017 66.3629C50.0017 64.8628 51.229 63.6354 52.7291 63.6354C54.2292 63.6354 55.4566 64.8628 55.4566 66.3629C55.4566 67.8629 54.2292 69.0903 52.7291 69.0903ZM74.5485 69.0903C73.0485 69.0903 71.8211 67.8629 71.8211 66.3629C71.8211 64.8628 73.0485 63.6354 74.5485 63.6354C76.0486 63.6354 77.276 64.8628 77.276 66.3629C77.276 67.8629 76.0486 69.0903 74.5485 69.0903ZM35.4372 56.8987L36.3646 63.6354L33.5008 66.5265L28.7005 57.8533L20 53.0257L22.8911 50.0801L29.7096 51.0893L40.2648 40.5341L20 29.8699L23.8729 26.0242L48.938 31.8064L59.5477 21.1967C61.0751 19.6011 63.8025 19.6011 65.3298 21.1967C66.939 22.8058 66.939 25.4514 65.3298 26.9788L54.7201 37.5885L56.9566 47.2709H53.8474C51.4745 47.2709 49.4289 48.6346 48.638 50.8438L48.5562 51.0074L46.0742 46.2617L35.4372 56.8987Z" fill="#CDDCE6"/>
</svg>
