<svg width="100" height="100" viewBox="0 0 100 100" fill="none" xmlns="http://www.w3.org/2000/svg">
    <path d="M67.9901 58.4217C67.9368 58.6483 67.8035 58.875 67.8168 59.0883C68.2834 65.5274 65.7904 71.2067 63.2574 76.8992C62.5375 78.5124 61.631 79.7389 59.7112 78.9656C57.7915 78.1791 57.7915 76.5393 58.6447 75.0195C62.5775 68.0204 63.1241 60.4348 62.7642 52.6491C62.6308 49.7428 62.6975 46.8232 62.7642 43.9169C62.8175 41.4906 63.804 40.5707 66.2037 40.3441C67.1102 40.2641 67.9901 39.9708 68.8833 39.7708C68.8567 39.5709 68.83 39.3709 68.8033 39.1709C68.1501 39.0243 67.4702 38.9576 66.8303 38.7443C64.8572 38.0644 63.684 35.9047 64.124 33.8116C64.5239 31.8785 66.417 30.3721 68.4034 30.4121C71.083 30.4654 72.6028 33.5183 71.243 36.158C70.8964 36.8379 70.4165 37.4378 69.6699 38.571C72.2429 36.9979 73.776 35.6247 73.1894 32.7584C72.8295 31.012 73.0028 29.1589 72.9628 27.3458C72.9228 25.9593 73.5761 24.7995 74.9492 25.0528C75.8158 25.2128 77.0156 26.3593 77.1222 27.1992C77.5222 30.2254 77.6155 33.3184 77.6155 36.3713C77.6155 37.1712 76.9623 38.1044 76.3757 38.7443C75.4158 39.7708 74.256 40.6107 73.3361 41.4106C73.5227 42.5971 73.816 43.6103 73.8427 44.6369C73.9093 47.1565 73.976 49.6762 73.8427 52.1825C73.6294 56.022 74.176 59.6615 75.7224 63.1944C76.1757 64.2476 76.149 65.6474 75.9624 66.8206C75.4158 70.0735 74.6692 73.2864 73.9893 76.5126C73.6294 78.2457 72.7895 79.5522 70.7898 79.059C68.9767 78.6057 68.67 77.2325 69.07 75.5261C69.6699 73.0064 70.0032 70.4068 70.7231 67.9271C71.8296 64.1809 69.4033 61.4613 68.6434 58.2617C68.4301 58.3284 68.2168 58.3817 67.9901 58.4217Z" fill="#CDDCE6"/>
    <path d="M50.8859 38.3311C53.3922 36.9313 54.5921 35.0115 53.8855 31.9853C53.5389 30.4788 53.4856 28.8123 53.7789 27.3059C53.9522 26.426 55.0587 25.7194 55.7519 24.9329C56.4852 25.6928 57.7383 26.386 57.845 27.2259C58.2449 30.0922 58.3516 33.0251 58.3249 35.9314C58.3116 36.8913 57.725 37.9978 57.0851 38.7577C56.1919 39.8242 54.9787 40.6241 54.0988 41.384C54.2855 42.6505 54.5388 43.677 54.5654 44.7169C54.6321 47.2366 54.6854 49.7562 54.5654 52.2626C54.3788 56.0087 54.872 59.5683 56.3785 63.0478C56.8851 64.2343 56.8318 65.8074 56.6185 67.1273C56.1385 70.1402 55.352 73.1131 54.7787 76.1261C54.4321 77.9258 53.8188 79.5123 51.6725 79.099C49.3528 78.6591 49.4861 76.846 49.9127 74.9929C50.4726 72.5399 50.8192 70.0469 51.4858 67.6205C52.4857 63.9677 50.166 61.328 49.2728 58.2484C49.0861 58.2751 48.8862 58.2884 48.6995 58.3151C48.6329 58.7284 48.4729 59.1683 48.5129 59.5683C49.1395 66.0741 46.1799 71.6333 43.8068 77.3259C43.1803 78.8324 42.0737 79.6323 40.4473 78.939C38.7942 78.2458 38.7275 76.8726 39.2208 75.3795C39.3674 74.9396 39.5274 74.4863 39.7674 74.073C43.0869 68.1005 43.8335 61.648 43.5535 54.9556C43.4069 51.4227 43.5002 47.8765 43.5402 44.3436C43.5669 41.3707 44.3934 40.6241 47.2331 40.2642C48.2996 40.1308 49.3128 39.4243 50.3393 38.971C50.5126 38.771 50.6993 38.5444 50.8859 38.3311Z" fill="#CDDCE6"/>
    <path d="M31.9019 38.1041C34.1816 36.9842 35.2747 35.3045 34.8215 32.6515C34.5415 30.9584 34.5415 29.2119 34.4882 27.4788C34.4482 26.039 35.0881 24.7725 36.6079 25.0391C37.4345 25.1858 38.5676 26.399 38.6743 27.2522C39.0609 30.2785 39.1276 33.358 39.1409 36.4243C39.1409 37.1709 38.621 38.0508 38.0877 38.624C37.0745 39.7039 35.8613 40.5971 34.9015 41.4236C35.0748 42.4635 35.3281 43.3301 35.3547 44.1966C35.4081 46.6363 35.488 49.076 35.3547 51.5023C35.1148 55.5684 35.6614 59.4346 37.2878 63.2074C37.7544 64.2739 37.7811 65.6738 37.5811 66.8469C37.0612 70.0199 36.3013 73.1528 35.6347 76.299C35.2881 77.9521 34.6215 79.4719 32.5951 79.1253C30.4087 78.752 30.3287 77.0456 30.702 75.2725C31.2219 72.8195 31.6352 70.3265 32.3285 67.9268C33.395 64.194 31.1153 61.4343 30.1288 58.2881C29.8088 58.3147 29.4755 58.3281 29.1556 58.3547C29.1556 60.3411 29.6088 62.4609 29.0622 64.3006C27.6891 68.9933 25.956 73.606 24.1162 78.1388C23.8763 78.712 21.7565 79.2053 21.1699 78.792C20.41 78.2588 19.7968 76.6056 20.0634 75.7258C20.89 72.9661 22.2231 70.3531 23.2497 67.6335C23.6896 66.487 24.0362 65.2338 24.0762 64.0073C24.2495 57.4882 24.3162 50.969 24.4095 44.4499C24.4495 41.3303 25.1428 40.7037 28.2357 40.3171C29.1822 40.1971 30.0354 39.3706 30.942 38.864C31.2619 38.6107 31.5819 38.3574 31.9019 38.1041Z" fill="#CDDCE6"/>
    <path d="M77.2022 23.5329C73.0427 22.7063 71.5363 23.8395 71.0297 28.1189C67.4035 28.1189 63.764 28.1189 60.0978 28.1189C58.7113 24.0261 57.6581 22.9463 55.3117 23.2129C53.2054 23.4529 52.2188 24.7594 51.6856 28.1456C48.0594 28.1456 44.4199 28.1456 40.7937 28.1456C40.0471 24.3861 38.9006 23.0929 36.4742 23.1862C34.2212 23.2796 33.1814 24.5594 32.5948 28.2389C31.3416 28.2389 30.0218 28.3722 28.7419 28.1856C28.1953 28.1056 27.4488 27.439 27.3288 26.9058C27.2088 26.3858 27.6754 25.2526 28.0354 25.186C29.7685 24.866 29.9551 23.4795 30.3284 22.253C30.8083 20.6532 31.7949 20.0133 33.448 20.0133C46.8862 20.04 60.3377 20.0667 73.776 20C76.189 20 76.8022 21.4665 77.2022 23.5329Z" fill="#CDDCE6"/>
    <path d="M50.8861 38.331C50.6995 38.5576 50.5128 38.7842 50.3262 38.9975C49.553 38.9442 48.7531 38.9975 47.9932 38.8242C45.8601 38.3576 44.447 36.1579 44.8069 34.0382C45.1802 31.9051 47.2333 30.2654 49.3397 30.4253C52.0193 30.6253 53.3125 33.5982 51.9127 36.2912C51.566 36.9711 51.2328 37.651 50.8861 38.331Z" fill="#CDDCE6"/>
    <path d="M31.9023 38.1041C31.5823 38.3574 31.2624 38.6107 30.9424 38.864C27.8495 39.0506 26.1031 37.8908 25.7298 35.3978C25.3832 33.0647 26.7963 30.825 29.1293 30.5851C30.2625 30.4651 32.1956 30.825 32.4755 31.505C33.0488 32.8914 32.8355 34.6512 32.7688 36.2377C32.7422 36.8776 32.2089 37.4775 31.9023 38.1041Z" fill="#CDDCE6"/>
    <path d="M59.8313 30.5989H63.4175C63.0442 32.132 62.4043 33.5452 62.4309 34.945C62.4443 35.7049 62.6976 36.4648 62.9642 37.198C63.3375 38.1845 63.2175 39.2911 62.6176 40.1709C62.271 40.6909 61.8977 41.2375 61.5111 41.8107C60.8445 42.8106 59.7246 43.3972 58.5248 43.3972H56.4051C55.5652 41.7307 55.9918 40.7175 57.7382 40.1443C59.7646 39.4644 60.3912 37.9446 60.1379 35.8648C59.9246 34.1717 59.9379 32.452 59.8313 30.5989Z" fill="#CDDCE6"/>
    <path d="M37.2877 43.4102C37.0877 42.717 36.9011 42.0371 36.6211 41.0639C43.0602 39.7307 40.5006 34.678 40.8339 30.6252H44.1534C43.8068 31.9851 43.1536 33.3849 43.1936 34.758C43.2069 35.5713 43.4469 36.3711 43.7135 37.1444C44.0734 38.1709 43.9268 39.3041 43.3269 40.1973C43.0469 40.6239 42.7536 41.0639 42.447 41.5171C41.6604 42.6903 40.3273 43.4102 38.9141 43.4102H37.2877Z" fill="#CDDCE6"/>
    <path d="M75.776 44.1703C75.4694 42.6771 75.3227 42.0106 75.1494 41.2107C76.4559 40.5174 77.6024 39.051 79.2555 40.4108C79.7088 40.7841 80.0688 42.1039 79.9888 42.1439C78.7489 42.8504 77.4291 43.4104 75.776 44.1703Z" fill="#CDDCE6"/>
</svg>
