<svg width="100" height="100" viewBox="0 0 100 100" fill="none" xmlns="http://www.w3.org/2000/svg">
    <path d="M81.5914 46.5678C81.6099 47.7159 80.6841 48.8825 80.1285 50.0306C78.8879 52.623 77.7213 55.2525 76.314 57.7524C75.4251 59.3263 74.2956 60.8448 72.9623 62.0669C70.8513 64.0112 68.5737 65.7704 66.222 67.3999C64.722 68.4369 63.037 69.3257 61.3148 69.8627C58.4817 70.7331 55.5559 71.3627 52.6302 71.8626C51.0377 72.1404 49.3341 72.1404 47.7231 71.8811C44.6862 71.3812 41.6679 70.7145 38.7051 69.8813C37.1496 69.4368 35.6312 68.6776 34.3165 67.7332C31.8166 65.9371 29.3908 64.0112 27.0947 61.9743C25.891 60.9003 24.817 59.5856 24.0393 58.1783C22.5579 55.4747 21.2061 52.6971 20.0395 49.8454C19.3914 48.2529 19.0396 46.4753 18.947 44.7531C18.7803 41.9015 18.7618 39.0127 18.9655 36.1796C19.0951 34.3649 19.5025 32.4946 20.1877 30.8095C21.2617 28.143 22.5394 25.5506 23.9652 23.0692C24.8541 21.4953 25.9836 19.9768 27.3169 18.7547C29.4279 16.7733 31.687 14.9957 34.0572 13.3846C35.5571 12.3662 37.2607 11.5144 38.9828 10.9959C41.7234 10.1626 44.6862 9.97743 47.3342 8.94046C49.3156 8.16273 50.8525 8.12569 52.8709 8.86639C55.6485 9.88485 58.6854 10.1441 61.5371 10.9959C63.1666 11.4773 64.7776 12.3106 66.1849 13.3106C68.5181 14.9586 70.7958 16.7548 72.9067 18.6806C74.24 19.9028 75.4251 21.3842 76.314 22.9396C77.7398 25.421 78.8323 28.106 80.1285 30.6614C80.6841 31.7724 81.5173 42.4385 81.5914 46.5678ZM72.9808 40.346C72.9808 27.7727 62.7407 17.5881 50.1118 17.6066C37.4829 17.6251 27.2798 27.8097 27.2984 40.4201C27.3169 52.9563 37.6681 63.2891 50.1674 63.2705C62.7037 63.215 72.9993 52.8823 72.9808 40.346Z" fill="#CDDCE6"/>
    <path d="M26.724 64.3445C28.2424 65.5296 29.8534 66.2518 30.6311 67.4739C33.1865 71.5292 36.6863 73.1032 41.3898 72.5662C42.5563 72.4366 43.797 73.0477 45.5191 73.418C42.5749 79.3066 39.9454 84.7507 37.0937 90.0837C36.0567 92.028 34.3346 91.9354 32.7792 90.38C32.5569 90.1578 32.3162 89.8985 32.1866 89.6022C30.0571 85.2692 26.6684 83.8433 21.8909 84.3803C18.5393 84.7507 17.5208 82.8989 18.9837 79.8991C21.4095 74.8624 23.9649 69.8627 26.724 64.3445Z" fill="#CDDCE6"/>
    <path d="M54.7041 73.2886C56.9262 72.9738 58.5928 72.4368 60.1853 72.585C64.0924 72.9368 66.8145 71.4184 69.0366 68.2889C70.0921 66.8075 71.7772 65.7706 73.5363 64.2151C76.4806 70.1592 79.1841 75.4552 81.7025 80.8252C82.6654 82.8806 81.4803 84.6583 79.4248 84.3806C73.9252 83.6213 70.1847 85.5471 67.4626 90.3432C66.4256 92.1764 64.2776 92.1023 63.2221 90.1395C60.3519 84.8064 57.741 79.3438 54.7041 73.2886Z" fill="#CDDCE6"/>
    <path d="M50.2778 20.2175C61.5364 20.2731 70.4988 29.4207 70.3692 40.6792C70.2395 51.6971 60.9993 60.7521 50 60.641C38.797 60.5299 29.779 51.2897 29.9086 40.0867C30.0382 29.0133 39.1303 20.1434 50.2778 20.2175ZM55.8515 33.0315C53.4813 36.0314 51.3518 38.7164 49.2038 41.4199C48.9445 41.1977 48.6853 40.9755 48.426 40.7533C46.9631 39.6423 45.5003 38.5497 43.9263 37.3461C42.8708 38.6794 41.8709 39.92 40.7413 41.3459C42.9634 43.1235 44.8336 44.9382 47.0372 46.253C47.9631 46.8085 49.963 46.79 50.7222 46.1604C53.9257 43.4569 56.8514 40.4385 59.9809 37.4202C58.518 35.8647 57.4996 34.7907 55.8515 33.0315Z" fill="#CDDCE6"/>
</svg>
