<svg width="100" height="100" viewBox="0 0 100 100" fill="none" xmlns="http://www.w3.org/2000/svg">
    <path fill-rule="evenodd" clip-rule="evenodd" d="M50 80C33.4306 80 20 66.5694 20 50C20 33.4306 33.4306 20 50 20C66.5694 20 80 33.4306 80 50C80 66.5694 66.5694 80 50 80ZM39.6875 48.5712V51.9612H42.995V56.8512H39.6875V60.0481H42.995V66.875H46.7225V60.0481H54.2225V56.8512H46.7225V51.9612H51.4269C52.86 51.9733 54.2874 51.7775 55.6644 51.38C56.9694 50.9919 58.1019 50.405 59.0656 49.6119C60.0294 48.8225 60.7906 47.8306 61.3494 46.6344C61.9081 45.44 62.1875 44.0356 62.1875 42.4212C62.1875 40.8088 61.925 39.4212 61.3962 38.2587C60.8675 37.0963 60.1381 36.1344 59.2062 35.3769C58.2744 34.6194 57.1569 34.0531 55.8519 33.6819C54.4409 33.2967 52.9832 33.1092 51.5206 33.125H42.995V48.5712H39.6875ZM51.5187 48.5712H46.7225V36.515H51.5206C53.6619 36.515 55.3475 36.9837 56.5737 37.9194C57.8 38.855 58.415 40.3569 58.415 42.4212C58.415 44.4875 57.8 46.0287 56.5737 47.0469C55.3475 48.0631 53.6619 48.5712 51.5206 48.5712H51.5187Z" fill="#CDDCE6"/>
</svg>
