<svg width="46" height="46" viewBox="0 0 46 46" fill="none" xmlns="http://www.w3.org/2000/svg">
    <path d="M40.5 0.5H5.5C2.725 0.5 0.5 2.725 0.5 5.5V40.5C0.5 41.8261 1.02678 43.0979 1.96447 44.0355C2.90215 44.9732 4.17392 45.5 5.5 45.5H40.5C43.275 45.5 45.5 43.275 45.5 40.5V5.5C45.5 4.17392 44.9732 2.90215 44.0355 1.96447C43.0979 1.02678 41.8261 0.5 40.5 0.5ZM15.075 10.625C17.525 10.625 19.5 12.6 19.5 15.075C19.5 17.525 17.525 19.5 15.075 19.5C12.6 19.5 10.625 17.525 10.625 15.075C10.625 12.6 12.6 10.625 15.075 10.625ZM31.05 35.5C28.6 35.5 26.625 33.5 26.625 31.05C26.625 28.6 28.6 26.625 31.05 26.625C33.5 26.625 35.5 28.6 35.5 31.05C35.5 33.5 33.5 35.5 31.05 35.5ZM14.25 35.575L10.5 31.825L31.825 10.5L35.575 14.25L14.25 35.575Z" fill="#CDDCE6"/>
</svg>
