<svg width="40" height="50" viewBox="0 0 40 50" fill="none" xmlns="http://www.w3.org/2000/svg">
    <path fill-rule="evenodd" clip-rule="evenodd" d="M37.5 0H21.25V20L15.625 15L10 20V0H2.5C1.11929 0 0 1.11929 0 2.5V47.5C0 48.8807 1.11929 50 2.5 50H37.5C38.8807 50 40 48.8807 40 47.5V2.5C40 1.11929 38.8807 0 37.5 0ZM10 29.1667C9.53976 29.1667 9.16667 29.5398 9.16667 30C9.16667 30.4602 9.53976 30.8333 10 30.8333H22.5C22.9602 30.8333 23.3333 30.4602 23.3333 30C23.3333 29.5398 22.9602 29.1667 22.5 29.1667H10ZM10 36.6667C9.53976 36.6667 9.16667 37.0398 9.16667 37.5C9.16667 37.9602 9.53976 38.3333 10 38.3333H30C30.4602 38.3333 30.8333 37.9602 30.8333 37.5C30.8333 37.0398 30.4602 36.6667 30 36.6667H10Z" fill="#81888D"/>
</svg>
