<svg width="60" height="60" viewBox="0 0 60 60" fill="none" xmlns="http://www.w3.org/2000/svg">
    <path d="M40.476 57C37.884 57 35.28 57 32.688 57C32.688 55.224 32.688 53.436 32.688 51.66C31.584 51.66 30.576 51.66 29.532 51.66C29.532 53.46 29.532 55.224 29.532 57C20.688 57 11.844 57 3 57C3 42.024 3 27.048 3 12.072C3.228 12.084 3.456 12.12 3.672 12.12C12.06 12.12 20.436 12.12 28.824 12.12C29.04 12.12 29.268 12.12 29.544 12.12C29.544 13.56 29.544 14.928 29.544 16.26C30.612 16.26 31.62 16.26 32.676 16.26C32.676 14.88 32.676 13.524 32.676 12.12C33.852 12.12 34.992 12.12 36.132 12.12C36.3 12.12 36.468 12.132 36.684 12.144C25.548 27 14.46 41.796 3.372 56.604C3.42 56.64 3.456 56.688 3.504 56.724C12.144 50.208 20.796 43.704 29.496 37.152C29.52 37.524 29.532 37.812 29.544 38.088C30.6 38.088 31.62 38.088 32.676 38.088C32.676 37.116 32.7 36.18 32.664 35.256C32.652 34.884 32.772 34.644 33.072 34.428C35.388 32.688 37.692 30.936 39.996 29.184C40.128 29.088 40.26 28.992 40.464 28.86C40.464 29.16 40.464 29.352 40.464 29.544C40.464 35.724 40.464 41.916 40.464 48.096C40.464 51.06 40.464 54.036 40.476 57ZM32.628 47.34C32.628 45.54 32.628 43.788 32.628 42.036C31.584 42.036 30.576 42.036 29.544 42.036C29.544 43.812 29.544 45.564 29.544 47.34C30.576 47.34 31.584 47.34 32.628 47.34Z" fill="#CDDCE6"/>
    <path d="M52.3687 3C52.6687 3.084 52.9687 3.168 53.2687 3.252C55.7527 4.02 57.2407 6.48 56.8567 9.156C56.5447 11.28 55.5727 13.044 54.0007 14.472C53.0647 15.312 52.0687 16.068 50.9887 16.944C50.9887 16.332 50.9887 15.864 50.9887 15.396C50.9887 14.16 50.9767 12.936 51.0007 11.7C51.0007 11.448 51.1447 11.184 51.2527 10.932C51.3607 10.68 51.5527 10.452 51.6487 10.188C51.8887 9.54 51.7687 8.94 51.2647 8.448C50.7727 7.98 50.1607 7.848 49.5607 8.124C48.3607 8.676 47.4607 9.588 46.8967 10.788C46.5487 11.532 46.8247 12.324 47.5327 12.756C47.7847 12.912 47.8447 13.08 47.8447 13.344C47.8327 15.168 47.8207 17.004 47.8567 18.828C47.8567 19.236 47.7247 19.464 47.4127 19.692C39.3127 25.8 31.2247 31.896 23.1487 37.98C21.8887 38.928 20.6167 39.864 19.3567 40.812C19.2247 40.908 19.0807 40.992 18.8887 41.028C18.9487 40.932 18.9967 40.836 19.0687 40.74C27.2887 29.82 35.5207 18.888 43.7527 7.98C44.7127 6.708 45.6727 5.424 47.0287 4.512C48.0727 3.816 49.2007 3.3 50.4487 3.096C50.5327 3.084 50.6047 3.036 50.6887 3C51.2407 3 51.8047 3 52.3687 3Z" fill="#CDDCE6"/>
    <path d="M22.9919 3C23.0999 5.148 24.5639 6.528 26.7719 6.54C30.2639 6.552 33.7559 6.54 37.2359 6.54C38.2919 6.54 39.3359 6.54 40.3919 6.54C40.5599 6.54 40.7279 6.54 41.0279 6.54C40.1999 7.608 39.4559 8.58 38.6999 9.54C38.6279 9.636 38.4239 9.672 38.2799 9.672C34.2839 9.672 30.2879 9.72 26.2919 9.66C22.7039 9.6 20.0279 6.78 19.8359 3C20.8919 3 21.9479 3 22.9919 3Z" fill="#CDDCE6"/>
    <path d="M50.975 17.0759C50.975 17.4479 50.975 17.6519 50.975 17.8679C50.975 24.0359 50.975 30.2039 50.975 36.3599C50.975 38.7959 52.463 40.6799 54.767 41.1239C55.391 41.2439 56.051 41.2199 56.783 41.2679C56.783 41.7599 56.783 42.2639 56.783 42.7679C56.783 43.2719 56.783 43.7879 56.783 44.3279C55.079 44.4839 53.471 44.2919 51.995 43.4519C49.343 41.9519 47.879 39.6719 47.855 36.5999C47.807 31.1039 47.843 25.6079 47.843 20.0999C47.843 19.9319 47.843 19.7039 47.951 19.6199C48.899 18.7799 49.895 17.9759 50.975 17.0759Z" fill="#CDDCE6"/>
</svg>
