<svg width="100" height="100" viewBox="0 0 100 100" fill="none" xmlns="http://www.w3.org/2000/svg">
    <path d="M65.597 30.4647C64.3837 32.3313 63.0926 34.1513 61.9881 36.0957C61.5526 36.8735 61.3348 37.9157 61.4126 38.8024C61.5215 40.2334 62.2526 41.6645 62.1748 43.0645C62.1126 44.4801 61.397 45.88 60.8837 47.5134C60.1993 47.5134 59.2037 47.5134 58.0682 47.5134C58.5193 45.6934 58.9548 43.9045 59.4371 41.9445C57.3993 41.3223 55.5327 40.7468 53.5571 40.1401C53.4793 39.0357 53.4016 37.9157 53.3238 36.5935C51.2394 36.5935 49.1394 36.5935 46.8061 36.5935C46.7128 37.6824 46.6039 38.8646 46.495 40.1557C44.6128 40.7312 42.7617 41.3068 40.5995 41.9756C41.0817 43.8423 41.5328 45.6156 42.0306 47.56C40.9262 47.56 39.9462 47.56 38.764 47.56C39.0284 44.6201 37.7218 42.0845 38.3284 38.8957C38.8262 36.3602 36.2129 33.2335 34.4551 30.418C32.2929 33.9646 28.0308 36.3291 30.473 41.5557C31.1574 43.0179 29.8352 45.4134 29.3996 47.56C26.273 47.56 23.0219 47.56 19.6309 47.56C19.6309 41.6645 19.6309 35.8468 19.6309 29.8269C39.7906 29.8269 59.9659 29.8269 80.3746 29.8269C80.3746 35.6135 80.3746 41.4779 80.3746 47.5289C77.1546 47.5289 73.9035 47.5289 70.6525 47.5289C70.2636 44.5578 69.7347 41.8045 70.0769 38.6779C70.3569 36.0646 67.8992 33.1558 66.6547 30.3869C66.297 30.4025 65.9392 30.4336 65.597 30.4647Z" fill="#CDDCE6"/>
    <path d="M60.7907 81.3619C60.0284 77.3175 61.864 74.2686 65.6906 73.0087C69.5328 71.7487 73.6705 73.522 75.3505 77.2397C75.9571 78.593 76.346 80.0552 76.8127 81.4241C79.6127 81.6108 82.3037 81.7819 84.9793 82.0463C85.0259 82.0463 84.9793 83.0574 84.9793 83.7419C84.2637 83.8041 83.6259 83.8819 82.9882 83.8819C61.1484 83.8819 39.3087 83.8974 17.4534 83.8819C16.1623 83.8819 14.3579 84.333 15.229 81.673C17.8112 81.673 20.4245 81.673 23.1467 81.673C23.6755 80.133 24.0644 78.6864 24.6711 77.3331C26.9733 72.1531 33.8488 70.8154 37.5354 75.0464C38.8887 76.602 39.2931 78.9975 40.4598 81.8286C41.7042 82.3419 41.7042 80.413 42.1398 79.0908C43.9597 73.4598 49.0308 71.0176 53.7752 73.5375C56.2018 74.8286 57.4151 76.9597 58.0529 79.5419C58.3796 80.8175 58.7218 82.233 60.7907 81.3619Z" fill="#CDDCE6"/>
    <path d="M74.1525 22.7026C57.9282 22.7026 42.1395 22.7026 25.9619 22.7026C26.9575 20.6648 27.7197 18.7671 28.8085 17.056C29.1974 16.4493 30.333 16.0449 31.1419 16.0449C43.7417 15.9827 56.3416 15.9827 68.957 16.0604C69.7969 16.0604 70.9636 16.636 71.4147 17.3204C72.4414 18.8604 73.1258 20.6182 74.1525 22.7026Z" fill="#CDDCE6"/>
    <path d="M80.1261 27.2602C60.0597 27.2602 39.9933 27.2602 19.8491 27.2602C18.7602 24.6469 20.6735 25.0669 22.0424 25.0669C38.92 25.0513 55.782 25.0669 72.6596 25.0669C74.7284 25.0669 76.8128 24.958 78.8817 25.1291C79.5661 25.1913 80.1728 25.9846 80.8261 26.4357C80.5928 26.7002 80.3595 26.9802 80.1261 27.2602Z" fill="#CDDCE6"/>
    <path d="M36.9597 56.5978C34.9064 56.5978 33.6153 56.5978 31.9509 56.5978C32.4798 52.3512 30.8154 48.0268 32.9465 43.7958C33.3509 42.9869 33.382 41.478 32.8842 40.7936C30.9865 38.1803 32.5576 36.4847 34.1442 34.3848C35.7309 36.3603 37.4264 37.9158 35.5753 40.5914C35.0775 41.3069 35.2798 42.6136 35.3886 43.6247C35.8553 47.8868 36.4153 52.149 36.9597 56.5978Z" fill="#CDDCE6"/>
    <path d="M65.8307 34.3069C67.5262 36.4535 69.0662 38.1491 67.184 40.7468C66.7329 41.369 66.9351 42.5823 67.044 43.5001C67.5262 47.7623 68.0862 52.0245 68.6617 56.5355C66.6084 56.5355 65.2551 56.5355 63.124 56.5355C63.6685 52.1489 64.2129 47.9023 64.6796 43.6557C64.7884 42.6446 65.0062 41.3068 64.5085 40.6224C62.6263 38.1024 64.3373 36.4846 65.8307 34.3069Z" fill="#CDDCE6"/>
    <path d="M42.5283 51.2C47.5994 51.2 52.5304 51.2 57.4926 51.2C56.2326 55.6021 56.2326 55.6021 52.0793 55.6021C50.7727 55.6021 49.4194 55.4155 48.1438 55.6332C44.7372 56.2088 43.1194 54.6066 42.5283 51.2Z" fill="#CDDCE6"/>
    <path d="M28.5137 67.0509C28.8092 64.8575 29.8981 63.5353 32.0136 63.5976C34.1136 63.6598 35.3425 64.982 35.2647 67.0664C35.2025 69.0108 33.9581 70.2241 31.9981 70.2553C29.867 70.2708 28.8403 68.9175 28.5137 67.0509Z" fill="#CDDCE6"/>
    <path d="M46.6045 67.1288C46.8534 64.9199 47.9111 63.5666 50.0422 63.5822C52.1422 63.5977 53.3866 64.8888 53.3555 66.9888C53.3244 68.9488 52.1111 70.1621 50.1511 70.2399C48.0356 70.3332 46.9934 68.9799 46.6045 67.1288Z" fill="#CDDCE6"/>
    <path d="M64.7109 67.1442C64.9598 64.9353 66.002 63.582 68.1331 63.582C70.2331 63.582 71.4775 64.8731 71.462 66.9731C71.4464 68.9331 70.2331 70.1464 68.2731 70.2397C66.142 70.3486 65.0998 68.9797 64.7109 67.1442Z" fill="#CDDCE6"/>
    <path d="M36.9284 62.0731C36.555 61.1087 35.9173 60.2376 36.1351 59.8487C37.3639 57.7487 39.3861 56.3176 41.735 56.8621C43.6639 57.3132 45.3283 58.8531 47.0549 60.0042C47.1171 60.0354 46.4327 61.1553 46.0438 61.8709C42.3105 58.0909 40.7083 58.0754 36.9284 62.0731Z" fill="#CDDCE6"/>
    <path d="M54.0242 61.8866C53.6353 61.171 52.9664 60.0666 53.0131 60.02C54.7397 58.8689 56.4041 57.3289 58.333 56.8778C60.6819 56.3178 62.7041 57.7644 63.9329 59.8644C64.1507 60.2377 63.5129 61.1244 63.2174 61.9177C59.0019 58.0911 57.7574 58.0755 54.0242 61.8866Z" fill="#CDDCE6"/>
    <path d="M49.0459 38.8956C51.3325 38.0245 51.1459 39.5022 51.1614 40.8711C51.3014 48.5866 51.317 48.5866 49.0459 48.6332C49.0459 45.46 49.0459 42.2867 49.0459 38.8956Z" fill="#CDDCE6"/>
    <path d="M46.5109 49.0378C45.842 48.6333 44.7998 48.3533 44.582 47.7778C44.0843 46.44 43.9754 44.9467 43.7109 43.5156C44.4265 43.7178 45.562 43.7178 45.7487 44.1534C46.3709 45.4912 46.6198 47 47.0242 48.4311C46.8531 48.6333 46.682 48.8356 46.5109 49.0378Z" fill="#CDDCE6"/>
    <path d="M52.8262 48.96C53.8062 46.5956 53.5417 44.029 55.2995 42.8623C55.7506 43.1734 56.2017 43.4845 56.6528 43.7956C55.6417 45.4756 56.7306 48.6178 52.8262 48.96Z" fill="#CDDCE6"/>
</svg>
