<svg width="14" height="14" viewBox="0 0 14 14" fill="none" xmlns="http://www.w3.org/2000/svg">
    <path d="M7.59631 0.701898C7.48338 0.476042 7.25254 0.333374 7.00002 0.333374C6.74751 0.333374 6.51667 0.476042 6.40374 0.701898L4.55791 4.39355L0.565319 5.00779C0.310768 5.04695 0.101543 5.22923 0.0278765 5.47602C-0.0457896 5.72281 0.0292817 5.98995 0.220713 6.16224L3.26212 8.8995L2.35043 12.8501C2.29063 13.1093 2.39056 13.3792 2.6047 13.5368C2.81884 13.6945 3.10622 13.7099 3.33594 13.5759L7.00002 11.4385L10.6641 13.5759C10.8938 13.7099 11.1812 13.6945 11.3953 13.5368C11.6095 13.3792 11.7094 13.1093 11.6496 12.8501L10.7379 8.8995L13.7793 6.16224C13.9708 5.98995 14.0458 5.72281 13.9722 5.47602C13.8985 5.22923 13.6893 5.04695 13.4347 5.00779L9.44213 4.39355L7.59631 0.701898Z" fill="#E4583E"/>
</svg>
