<svg width="100" height="100" viewBox="0 0 100 100" fill="none" xmlns="http://www.w3.org/2000/svg">
    <path d="M75.6987 82.4798C71.2719 84.9865 66.9518 87.4044 62.4894 89.9289C61.9916 89.2711 61.5116 88.7555 61.156 88.1511C51.5913 72.3106 42.0088 56.4878 32.4796 40.6296C28.0528 33.2516 27.9817 25.8024 32.8707 18.6378C38.3109 10.6375 46.4356 9.07303 55.2358 10.442C63.6272 11.7398 68.9963 16.9133 71.2363 25.1269C72.463 29.5892 72.143 34.0871 69.9385 38.1762C67.1295 43.3674 64.0006 48.3987 60.7827 53.8744C58.2404 50.3899 55.9292 47.2253 53.5113 43.883C55.7692 40.7185 58.027 37.6073 60.2316 34.4783C62.685 30.9937 63.6094 27.1003 62.7739 22.9224C61.316 15.6332 55.1292 11.3664 48.1067 12.682C41.7776 13.8732 36.9597 20.8067 38.3286 27.5625C38.9331 30.5137 40.3554 33.4827 42.1154 35.9539C52.4802 50.5321 63.0583 64.9503 73.5653 79.4397C74.2053 80.3286 74.8453 81.2709 75.6987 82.4798Z" fill="#CDDCE6"/>
    <path d="M24 81.6267C29.2979 74.7287 34.2581 68.2574 39.4672 61.4839C42.205 65.964 44.7829 70.053 47.2185 74.2309C47.5385 74.7643 47.3607 75.8666 47.0052 76.471C44.4095 80.9334 41.6894 85.3424 38.8805 90.0003C33.9203 87.2091 29.0846 84.489 24 81.6267Z" fill="#CDDCE6"/>
    <path d="M57.9207 27.0289C52.9428 23.2955 48.1604 23.4199 43.3958 26.8334C42.578 23.5799 43.5914 20.522 46.027 18.6553C48.516 16.7353 51.7694 16.5753 54.454 18.2109C57.2452 19.8998 58.5608 23.0644 57.9207 27.0289Z" fill="#CDDCE6"/>
</svg>
