<svg width="32" height="32" viewBox="0 0 32 32" fill="none" xmlns="http://www.w3.org/2000/svg">
    <path d="M15.9993 2.66663C8.63935 2.66663 2.66602 8.63996 2.66602 16C2.66602 23.36 8.63935 29.3333 15.9993 29.3333C23.3593 29.3333 29.3327 23.36 29.3327 16C29.3327 8.63996 23.3593 2.66663 15.9993 2.66663ZM22.186 11.7333C21.986 13.84 21.1193 18.96 20.6793 21.32C20.4927 22.32 20.1193 22.6533 19.7727 22.6933C18.9993 22.76 18.4127 22.1866 17.666 21.6933C16.4927 20.92 15.826 20.44 14.6927 19.6933C13.3727 18.8266 14.226 18.3466 14.986 17.5733C15.186 17.3733 18.5993 14.2666 18.666 13.9866C18.6753 13.9442 18.674 13.9002 18.6624 13.8584C18.6508 13.8165 18.6292 13.7782 18.5993 13.7466C18.5193 13.68 18.4127 13.7066 18.3193 13.72C18.1993 13.7466 16.3327 14.9866 12.6927 17.44C12.1593 17.8 11.6793 17.9866 11.2527 17.9733C10.7727 17.96 9.86601 17.7066 9.18602 17.48C8.34601 17.2133 7.69268 17.0666 7.74602 16.6C7.77268 16.36 8.10602 16.12 8.73268 15.8666C12.626 14.1733 15.2127 13.0533 16.506 12.52C20.2127 10.9733 20.9727 10.7066 21.4793 10.7066C21.586 10.7066 21.8393 10.7333 21.9993 10.8666C22.1327 10.9733 22.1727 11.12 22.186 11.2266C22.1727 11.3066 22.1993 11.5466 22.186 11.7333Z" fill="#CDDCE6"/>
</svg>
