<svg width="60" height="60" viewBox="0 0 60 60" fill="none" xmlns="http://www.w3.org/2000/svg">
    <path d="M9.9723 45.0144C9.9723 44.6183 9.9723 44.3062 9.9723 44.0061C9.9723 36.0959 9.96029 28.1736 9.9723 20.2633C9.9963 10.5045 16.4421 2.51027 25.9489 0.433673C36.7639 -1.931 47.8431 5.64316 49.5836 16.6143C49.7877 17.8626 49.8837 19.147 49.8837 20.4194C49.9077 28.2816 49.8957 36.1439 49.8957 44.0061C49.8957 44.3182 49.8957 44.6183 49.8957 45.0144C50.2318 45.0144 50.5079 45.0144 50.7839 45.0144C52.9686 45.0144 55.1532 45.0024 57.3378 45.0144C58.7902 45.0264 59.8825 46.1427 59.8705 47.5231C59.8585 48.8795 58.7782 49.9478 57.3738 50.0078C57.2418 50.0078 57.1097 50.0078 56.9897 50.0078C38.9606 50.0078 20.9194 50.0078 2.89028 50.0078C2.57819 50.0078 2.2661 50.0078 1.96601 49.9478C0.729658 49.6717 -0.098578 48.5314 0.0094528 47.295C0.117484 46.0347 1.14978 45.0384 2.45815 45.0264C4.64278 45.0024 6.8274 45.0144 9.01202 45.0144C9.2881 45.0144 9.57618 45.0144 9.9723 45.0144ZM27.4373 22.52C27.4373 22.9161 27.4373 23.1922 27.4373 23.4803C27.4373 27.2253 27.4133 30.9704 27.4613 34.7155C27.4613 35.2796 27.6173 35.9158 27.9054 36.4079C28.4456 37.3562 29.5979 37.7163 30.6182 37.4162C31.7225 37.0801 32.4187 36.1799 32.4307 34.9675C32.4427 31.1144 32.4307 27.2613 32.4307 23.4202C32.4307 23.1442 32.4307 22.8681 32.4307 22.52C33.2949 22.52 34.0632 22.532 34.8314 22.52C36.2958 22.496 37.4001 21.4397 37.4121 20.0473C37.4241 18.6309 36.3198 17.5386 34.8074 17.5266C34.0392 17.5145 33.2589 17.5266 32.4187 17.5266C32.4187 16.7223 32.4187 16.0021 32.4187 15.2819C32.4067 13.6494 31.3624 12.5091 29.886 12.5331C28.4456 12.5571 27.4373 13.6735 27.4253 15.2819C27.4253 16.0261 27.4253 16.7703 27.4253 17.5386C26.525 17.5386 25.7448 17.5266 24.9766 17.5386C23.5242 17.5746 22.4319 18.6549 22.4439 20.0473C22.4559 21.4277 23.5482 22.508 25.0126 22.532C25.7928 22.532 26.573 22.52 27.4373 22.52Z" fill="#81888D"/>
    <path d="M30.0062 55.0133C35.7438 55.0133 41.4935 55.0133 47.2311 55.0133C49.1277 55.0133 50.364 56.7178 49.7158 58.3983C49.3317 59.3825 48.4315 59.9947 47.2671 59.9947C44.6744 60.0067 42.0696 59.9947 39.4769 59.9947C30.6424 59.9947 21.8079 59.9947 12.9733 59.9947C12.6132 59.9947 12.2411 60.0067 11.893 59.9227C10.6687 59.6346 9.86446 58.4823 9.98449 57.2459C10.1165 55.9856 11.1488 55.0133 12.4692 55.0133C15.146 54.9893 17.8227 55.0013 20.4995 55.0013C23.6684 55.0133 26.8373 55.0133 30.0062 55.0133Z" fill="#81888D"/>
</svg>
