<svg width="100" height="100" viewBox="0 0 100 100" fill="none" xmlns="http://www.w3.org/2000/svg">
    <path d="M52.4727 20.0133C53.699 20.2399 54.9388 20.3866 56.1385 20.7198C63.6035 22.7461 69.0423 29.2779 69.7222 36.9429C69.7755 37.5294 69.8155 38.116 69.8155 38.6892C69.8155 45.3677 69.8155 52.0462 69.8155 58.7114C69.8155 58.8714 69.8155 59.018 69.8155 59.2179C56.6184 59.2179 43.448 59.2179 30.2109 59.2179C30.2109 59.018 30.2109 58.8047 30.2109 58.6048C30.2109 52.0196 30.2109 45.4477 30.2109 38.8625C30.2243 29.8245 36.1963 22.3728 45.021 20.4132C45.8475 20.2266 46.7139 20.1333 47.5537 20C49.1801 20.0133 50.833 20.0133 52.4727 20.0133ZM50.0065 36.0498C47.6871 36.0498 45.3676 36.0498 43.0348 36.0498C42.7681 36.0498 42.4882 36.0631 42.2349 36.1431C41.4084 36.4097 40.9419 37.2228 41.0885 38.076C41.2352 38.9691 41.955 39.5423 42.9814 39.5557C47.6471 39.569 52.3127 39.5557 56.9783 39.5557C58.1647 39.5557 58.9645 38.8358 58.9645 37.7827C58.9645 36.7296 58.1781 36.0364 56.9783 36.0364C54.6455 36.0364 52.326 36.0498 50.0065 36.0498ZM50.0065 43.0749C47.7004 43.0749 45.3942 43.0749 43.1014 43.0749C42.8348 43.0749 42.5549 43.0749 42.2883 43.1549C41.4618 43.3948 40.9552 44.1946 41.0752 45.0478C41.1952 45.9676 41.9283 46.5808 42.9814 46.5808C47.6471 46.5808 52.3127 46.5808 56.9783 46.5808C58.1647 46.5808 58.9645 45.8609 58.9645 44.8212C58.9645 43.7681 58.1781 43.0749 56.9783 43.0749C54.6588 43.0749 52.326 43.0749 50.0065 43.0749ZM50.0465 50.1C47.6604 50.1 45.2876 50.1 42.9014 50.1C41.835 50.1 41.0752 50.8198 41.0485 51.8063C41.0219 52.806 41.795 53.6059 42.8748 53.6059C47.6204 53.6192 52.366 53.6192 57.0983 53.6059C57.6715 53.6059 58.1781 53.4059 58.538 52.9527C58.9779 52.4061 59.0712 51.7796 58.7913 51.1397C58.4847 50.4466 57.9381 50.1 57.1783 50.1C54.8055 50.1 52.4327 50.1 50.0465 50.1Z" fill="#559DD2"/>
    <path d="M20.0133 73.908C20.4399 72.8949 21.1997 72.575 22.2795 72.575C40.7554 72.6016 59.2446 72.6016 77.7205 72.575C78.8003 72.575 79.5734 72.8949 79.9867 73.908C79.9867 75.9342 79.9867 77.9738 79.9867 80C59.9911 80 39.9956 80 20 80C20.0133 77.9738 20.0133 75.9342 20.0133 73.908Z" fill="#559DD2"/>
    <path d="M23.7595 69.029C23.7595 67.4294 23.7195 65.8697 23.7728 64.3101C23.7995 63.4969 24.5327 62.8704 25.3858 62.7904C25.5591 62.7771 25.7324 62.7771 25.919 62.7771C41.9821 62.7771 58.0586 62.7771 74.1217 62.7904C74.6415 62.7904 75.2147 62.9504 75.6413 63.2303C75.9479 63.4303 76.2278 63.9235 76.2412 64.2968C76.3078 65.8564 76.2678 67.4161 76.2678 69.0157C58.7651 69.029 41.3023 69.029 23.7595 69.029Z" fill="#559DD2"/>
</svg>
