<svg width="100" height="100" viewBox="0 0 100 100" fill="none" xmlns="http://www.w3.org/2000/svg">
    <path d="M45.8758 84.5029C35.1842 84.5029 25.193 84.5029 15.1084 84.5029C15.1551 81.904 17.5829 82.791 18.6256 81.8417C19.8083 80.7679 20.8199 79.5229 22.205 78.0444C23.2477 79.1183 24.4771 80.2232 25.5198 81.4838C27.6208 84.0516 31.1846 84.0672 33.2233 81.4527C33.8147 80.6901 34.375 79.8497 35.1375 79.3206C38.6547 76.8305 38.6391 73.1111 35.0286 70.7611C34.624 70.4965 34.2505 70.1697 33.2233 69.3916C34.624 69.2048 35.3866 69.2515 36.0246 69.0025C37.0673 68.5823 38.2656 68.1777 38.9504 67.3684C40.6779 65.3764 42.1874 64.9407 44.4129 66.1857C48.6304 68.5512 52.6767 68.9247 57.0342 66.1234C58.2014 65.3764 60.5981 66.0145 62.1855 66.6214C63.5394 67.135 64.551 68.5201 65.9516 69.734C64.8311 70.4654 64.1619 70.8545 63.5705 71.3214C61.2361 73.1733 61.0494 76.3948 63.1503 78.4646C68.5973 83.8493 71.1184 84.6274 73.6707 81.7795C74.9002 80.41 76.1919 79.1027 77.0011 78.2623C79.3199 79.5696 81.2808 80.5189 83.0705 81.7328C83.8331 82.2463 84.2066 83.3202 85.0003 84.5341C74.2465 84.5341 64.2553 84.5341 54.2641 84.5341C54.0306 84.2539 53.7972 83.9738 53.5637 83.6937C54.124 83.4758 54.6998 83.2735 55.2445 83.0089C55.5713 82.8533 55.8826 82.6665 56.1627 82.4487C57.859 81.1414 58.855 78.9782 57.7345 77.453C55.8203 74.823 53.3459 72.4263 50.6691 70.5899C49.0973 69.5161 47.0274 70.6833 45.7668 72.4107C45.2533 73.1111 44.7241 73.8581 44.0238 74.3561C40.351 76.9395 40.4133 80.5033 44.2261 83.0556C44.6619 83.3046 45.0043 83.7092 45.8758 84.5029Z" fill="#CDDCE6"/>
    <path d="M17.9561 48.5997C18.812 46.3587 19.4656 44.3044 20.3994 42.4058C20.6484 41.9078 21.7067 41.5498 22.3914 41.5498C40.6309 41.5031 58.8703 41.4876 77.1097 41.5809C77.9034 41.5809 79.0395 42.4058 79.4286 43.1528C80.269 44.7869 80.7358 46.6232 81.4206 48.5997C60.1776 48.5997 39.2925 48.5997 17.9561 48.5997Z" fill="#CDDCE6"/>
    <path d="M55.7263 63.3847C55.7263 61.7662 55.7263 60.1632 55.7263 58.4358C51.6489 58.4358 47.805 58.4358 43.7898 58.4358C43.7898 59.9298 43.7898 61.2682 43.7898 62.5754C41.6266 63.0112 41.6266 63.0112 41.1753 58.5291C37.3935 58.5291 33.5807 58.5291 29.7989 58.5291C28.1493 61.1281 31.2307 65.1121 27.0288 67.6022C27.0288 64.2406 27.0288 61.486 27.0288 58.2646C24.3365 58.2646 21.8464 58.3424 19.372 58.2023C18.6872 58.1712 18.0491 57.4709 17.3955 57.0662C18.0336 56.6616 18.6716 55.9146 19.3097 55.9146C39.5412 55.8524 59.7882 55.8524 80.0197 55.9146C80.7044 55.9146 81.3892 56.5838 82.0584 56.9262C81.3581 57.3619 80.6733 58.1401 79.9418 58.1868C77.5296 58.3424 75.1174 58.249 72.5029 58.249C72.5029 61.3771 72.5029 64.1473 72.5029 67.431C68.0053 65.2055 71.3824 61.1592 69.5771 58.4358C66.0288 58.4358 62.2938 58.4358 58.5743 58.4358C57.127 59.8053 59.726 63.2913 55.7263 63.3847Z" fill="#CDDCE6"/>
    <path d="M84.2219 53.3929C61.1113 53.3929 38.1719 53.3929 15.2793 53.3929C14.6101 51.6188 15.1392 51.0274 16.9134 51.0274C38.7789 51.0585 60.66 51.0585 82.5255 51.0274C84.2686 51.0119 84.8911 51.5566 84.2219 53.3929Z" fill="#CDDCE6"/>
    <path d="M58.9175 36.4606C57.5791 33.5971 56.2874 30.8425 54.9023 27.8545C58.793 23.5125 59.1665 20.789 56.0851 15.3577C58.2639 15.3577 60.3493 15.3577 62.8704 15.3577C62.8704 19.4818 62.5592 23.7148 62.9638 27.8856C63.3373 31.9163 61.7966 34.5931 58.9175 36.4606Z" fill="#CDDCE6"/>
    <path d="M45.331 28.3995C41.3158 30.9829 41.238 34.9202 41.3781 38.9509C39.744 38.9509 38.4056 38.9509 36.6159 38.9509C36.6159 35.6205 37.0361 32.1812 36.5225 28.8663C35.5732 22.688 38.4056 18.6572 43.5724 15C40.3976 20.1357 40.6155 24.4777 45.331 28.3995Z" fill="#CDDCE6"/>
    <path d="M17.4736 79.5538C17.4736 73.1575 17.4736 67.1504 17.4736 60.9253C19.7613 60.9253 21.9557 60.9253 24.6013 60.9253C24.6013 63.7888 24.6013 66.7146 24.6013 69.6404C24.6013 69.8116 24.5858 70.0295 24.4924 70.1695C22.2358 73.1887 19.9792 76.2078 17.4736 79.5538Z" fill="#CDDCE6"/>
    <path d="M81.9183 60.9253C81.9183 66.8235 81.9183 72.6129 81.9183 78.4177C81.7472 78.4955 81.576 78.5578 81.4048 78.6356C80.3932 77.0949 79.3661 75.5698 78.3856 74.0135C78.1055 73.5622 78.0899 72.7996 77.7009 72.5662C72.9854 69.6248 75.5376 65.0494 74.6973 60.9409C77.234 60.9253 79.4283 60.9253 81.9183 60.9253Z" fill="#CDDCE6"/>
    <path d="M55.9601 38.9355C51.7115 38.9355 47.9454 38.9355 43.5723 38.9355C43.8835 36.5389 44.1948 34.22 44.5683 31.4966C49.1904 35.1071 50.1864 35.1071 54.933 31.5277C55.291 34.1734 55.6178 36.4455 55.9601 38.9355Z" fill="#CDDCE6"/>
    <path d="M71.5074 27.1077C71.8809 27.31 72.908 27.6368 72.8924 27.8702C72.659 31.0761 77.141 30.298 77.2344 33.0837C77.25 33.644 76.752 34.7178 76.5497 34.7022C73.3749 34.4999 74.1841 39.0598 71.2895 39.0131C70.7292 38.9975 69.671 38.5307 69.6865 38.3283C69.92 35.1847 65.5002 35.9784 65.4379 33.2394C65.4224 32.6635 65.8425 31.5897 66.0137 31.5897C69.2041 31.7453 68.4571 27.31 71.5074 27.1077ZM74.76 33.037C73.0481 31.9632 72.0209 30.8271 71.2117 30.9672C70.3402 31.1073 69.2352 32.399 69.0951 33.3172C69.0018 33.893 70.4802 35.2781 71.2739 35.2936C72.161 35.3092 73.0792 34.1887 74.76 33.037Z" fill="#CDDCE6"/>
    <path d="M34.1411 33.4104C33.9077 33.815 33.7209 34.4687 33.2852 34.8422C31.6355 36.2895 29.9392 37.7057 28.1651 38.9818C27.9005 39.1686 26.5777 38.5461 26.5932 38.3593C26.7956 35.169 22.2979 35.9316 22.2357 33.1147C22.2201 32.5545 22.7337 31.4962 22.936 31.5118C26.1419 31.7608 25.3015 27.1698 28.1495 27.1853C28.7098 27.1853 29.768 27.6678 29.7525 27.8857C29.628 30.9826 34.0478 30.329 34.1411 33.4104ZM28.1962 36.5074C29.3167 34.8577 30.4217 33.924 30.3905 33.0369C30.375 32.2743 28.9588 30.8893 28.3207 30.9826C27.4181 31.1071 26.1264 32.2432 26.0019 33.0992C25.8929 33.8928 27.0757 34.8733 28.1962 36.5074Z" fill="#CDDCE6"/>
    <path d="M73.188 78.1375C72.192 79.0712 71.336 80.3629 70.1533 80.7676C69.6708 80.9388 68.5192 79.2269 67.6788 78.3709C67.3987 78.0908 67.1808 77.5772 66.8851 77.5305C65.251 77.2971 63.8504 76.5345 64.3328 74.8071C64.6441 73.7332 66.0603 72.9862 67.5543 71.5233C67.9745 71.0876 68.846 69.9826 69.9354 69.1734C70.2311 68.9555 71.7562 69.6714 71.7407 69.8737C71.4605 73.0796 76.6273 72.2237 75.8803 75.3673C75.6313 76.4256 74.0906 77.1726 73.1413 78.0752C73.1569 78.0908 73.1724 78.1063 73.188 78.1375ZM73.5148 74.9938C71.8652 73.92 70.9158 72.815 70.0132 72.8462C69.2351 72.8773 67.7722 74.3246 67.8811 74.9004C68.0679 75.8498 69.2039 77.157 70.0754 77.2815C70.9003 77.3749 71.8963 76.1299 73.5148 74.9938Z" fill="#CDDCE6"/>
    <path d="M31.9777 77.6395C31.6665 79.3825 31.0751 81.7325 29.0208 80.7364C26.8732 79.6937 25.2702 77.4216 23.5894 75.5385C23.3093 75.2273 23.6828 73.8266 24.1653 73.4064C25.9705 71.8813 28.2116 69.1889 29.7989 69.4846C31.8377 69.8737 33.9542 72.4571 35.028 74.6048C36.0863 76.6746 33.8141 77.3438 31.9777 77.6395ZM29.5499 78.4487C30.5615 76.768 31.7287 75.7097 31.5731 74.8693C31.4175 74.0289 30.0168 72.9551 29.0831 72.8617C28.4606 72.7995 27.1066 74.3246 27.1377 75.0872C27.1844 76.021 28.3672 76.8925 29.5499 78.4487Z" fill="#CDDCE6"/>
    <path d="M55.8042 78.6666C55.5708 79.1802 55.3685 80.0517 55.1195 80.0828C52.2093 80.3007 52.4427 84.1447 49.8593 84.5493C49.2835 84.6427 48.412 84.2069 47.9918 83.7245C46.5133 82.0126 43.712 79.6782 44.1167 78.4799C44.8637 76.2389 47.4938 74.6203 49.3457 72.7373C49.3924 72.6906 49.5325 72.675 49.6103 72.7061C50.1861 72.9084 51.2599 73.1263 51.2599 73.3442C51.2599 76.3945 55.3529 75.9587 55.8042 78.6666ZM49.159 81.2812C49.5169 81.2812 49.8904 81.2967 50.2484 81.2967C50.8397 80.3785 51.9291 79.4448 51.898 78.5577C51.8669 77.7951 50.5441 76.519 49.7815 76.519C49.0189 76.5034 47.665 77.7329 47.6027 78.4954C47.5249 79.367 48.5832 80.3474 49.159 81.2812Z" fill="#CDDCE6"/>
    <path d="M44.2256 22.7816C47.9295 20.5717 51.54 20.5406 55.1039 22.7038C54.8082 25.1005 52.9874 26.8435 50.2795 27.0769C47.3226 27.3415 45.0971 25.7074 44.2256 22.7816Z" fill="#CDDCE6"/>
    <path d="M31.8691 66.2011C31.8691 64.5048 31.8691 62.8085 31.8691 60.7075C33.0675 60.7075 34.2035 60.7075 35.3396 60.7075C36.4134 60.7075 37.4873 60.7075 38.53 60.7075C39.4948 65.423 36.7091 67.664 31.8691 66.2011Z" fill="#CDDCE6"/>
    <path d="M46.3733 60.7856C48.661 60.7856 50.7931 60.7856 53.1587 60.7856C53.1587 62.2174 53.1587 63.6025 53.1587 65.0031C48.0385 66.6995 45.782 65.4078 46.3733 60.7856Z" fill="#CDDCE6"/>
    <path d="M55.3841 20.4779C53.0964 19.2952 51.3845 18.4081 49.7349 17.5521C48.1008 18.4081 46.3733 19.2952 44.4902 20.2756C44.4902 17.3498 46.4044 15.4512 49.1902 15.1866C52.1471 14.9065 54.5282 16.6806 55.3841 20.4779Z" fill="#CDDCE6"/>
    <path d="M67.5076 68.1157C64.7063 65.6256 62.4342 63.6025 60.1465 61.5638C60.3332 61.3303 60.52 61.0969 60.7067 60.8479C62.9166 60.8479 65.111 60.8479 67.5076 60.8479C67.5076 63.0578 67.5076 65.221 67.5076 68.1157Z" fill="#CDDCE6"/>
    <path d="M47.2295 29.8623C49.0659 29.8623 50.3887 29.8623 51.8049 29.8623C50.5443 32.4768 49.5172 32.5546 47.2295 29.8623Z" fill="#CDDCE6"/>
    <path d="M63.0253 34.282V39.013H57.4072C59.9128 37.9859 61.7959 36.3985 63.0253 34.282Z" fill="#CDDCE6"/>
    <path d="M35.8994 22.8595V15.0159H41.5175C39.0119 16.0586 35.8994 20.4784 35.8994 22.8595Z" fill="#CDDCE6"/>
</svg>
