<svg width="32" height="32" viewBox="0 0 32 32" fill="none" xmlns="http://www.w3.org/2000/svg">
    <path d="M2.67137 29.3333L4.47403 22.7093C3.28622 20.6731 2.66216 18.3573 2.66603 16C2.66603 8.63596 8.63537 2.66663 15.9994 2.66663C23.3634 2.66663 29.3327 8.63596 29.3327 16C29.3327 23.364 23.3634 29.3333 15.9994 29.3333C13.6431 29.3371 11.3282 28.7135 9.2927 27.5266L2.67137 29.3333ZM11.1874 9.74396C11.0152 9.75465 10.8469 9.8 10.6927 9.87729C10.5481 9.9592 10.416 10.0616 10.3007 10.1813C10.1407 10.332 10.05 10.4626 9.9527 10.5893C9.45992 11.2306 9.19485 12.0179 9.19937 12.8266C9.20203 13.48 9.3727 14.116 9.63937 14.7106C10.1847 15.9133 11.082 17.1866 12.2674 18.3666C12.5527 18.6506 12.8314 18.936 13.1314 19.2013C14.6026 20.4966 16.3557 21.4307 18.2514 21.9293L19.01 22.0453C19.2567 22.0586 19.5034 22.04 19.7514 22.028C20.1397 22.0079 20.5189 21.9028 20.862 21.72C21.0366 21.63 21.207 21.5321 21.3727 21.4266C21.3727 21.4266 21.43 21.3893 21.5394 21.3066C21.7194 21.1733 21.83 21.0786 21.9794 20.9226C22.09 20.808 22.186 20.6733 22.2594 20.52C22.3634 20.3026 22.4674 19.888 22.51 19.5426C22.542 19.2786 22.5327 19.1346 22.5287 19.0453C22.5234 18.9026 22.4047 18.7546 22.2754 18.692L21.4994 18.344C21.4994 18.344 20.3394 17.8386 19.6314 17.516C19.5567 17.4834 19.4767 17.4649 19.3954 17.4613C19.3041 17.4519 19.212 17.4622 19.125 17.4914C19.0381 17.5206 18.9584 17.5681 18.8914 17.6306V17.628C18.8847 17.628 18.7954 17.704 17.8314 18.872C17.776 18.9463 17.6998 19.0025 17.6124 19.0334C17.5251 19.0642 17.4305 19.0684 17.3407 19.0453C17.2538 19.0221 17.1687 18.9927 17.086 18.9573C16.9207 18.888 16.8634 18.8613 16.75 18.812L16.7434 18.8093C15.9806 18.4763 15.2743 18.0264 14.65 17.476C14.482 17.3293 14.326 17.1693 14.166 17.0146C13.6415 16.5123 13.1843 15.944 12.806 15.324L12.7274 15.1973C12.6709 15.1122 12.6252 15.0204 12.5914 14.924C12.5407 14.728 12.6727 14.5706 12.6727 14.5706C12.6727 14.5706 12.9967 14.216 13.1474 14.024C13.2728 13.8644 13.3899 13.6984 13.498 13.5266C13.6554 13.2733 13.7047 13.0133 13.622 12.812C13.2487 11.9 12.862 10.992 12.4647 10.0906C12.386 9.91196 12.1527 9.78396 11.9407 9.75863C11.8687 9.75063 11.7967 9.74263 11.7247 9.73729C11.5456 9.7284 11.3662 9.73151 11.1874 9.74396Z" fill="#CDDCE6"/>
</svg>
