<svg width="60" height="60" viewBox="0 0 60 60" fill="none" xmlns="http://www.w3.org/2000/svg">
    <path d="M15.4997 59.9999C14.7797 59.6759 14.3837 59.0999 14.0957 58.3799C13.5797 57.1199 12.9917 55.8839 12.4637 54.6239C12.3317 54.3119 12.1757 54.2399 11.8517 54.2759C10.3277 54.4919 8.80372 54.6719 7.27972 54.8759C6.55972 54.9719 5.95972 54.7439 5.55172 54.1439C5.13172 53.5439 5.10772 52.8959 5.46772 52.2719C6.64372 50.1599 7.84372 48.0599 9.01972 45.9479C9.22372 45.5879 9.47572 45.6599 9.75172 45.7079C12.3557 46.1399 14.9837 46.2959 17.6117 46.1399C20.0357 45.9959 22.4597 45.7439 24.8837 45.5279C28.4117 45.2039 31.9397 44.8559 35.4677 44.5319C38.6117 44.2319 41.7437 43.9319 44.8877 43.6439C47.0957 43.4399 49.3157 43.4159 51.5717 43.6559C51.5477 43.7999 51.5597 43.9319 51.4997 44.0039C51.0077 44.6639 51.2597 45.2279 51.6317 45.8639C52.8077 47.8799 53.9237 49.9439 55.0877 51.9719C55.4957 52.6799 55.6757 53.3879 55.1957 54.1079C54.7157 54.8279 54.0197 54.9839 53.1917 54.8639C51.7637 54.6479 50.3357 54.5039 48.9077 54.2999C48.5357 54.2399 48.3557 54.3359 48.2117 54.6839C47.6957 55.9199 47.1197 57.1439 46.6037 58.3799C46.3157 59.0879 45.9197 59.6759 45.1997 59.9999C44.8877 59.9999 44.5757 59.9999 44.2637 59.9999C43.6277 59.6879 43.2317 59.1719 42.8957 58.5599C41.6117 56.2439 40.3037 53.9279 38.9957 51.6239C38.8997 51.4559 38.6597 51.1919 38.5877 51.2159C37.8197 51.5399 36.9077 51.4799 36.2717 52.1879C33.2957 55.4639 28.1957 55.7039 24.9317 52.6679C24.1997 51.9839 23.4317 51.5639 22.5077 51.2999C22.0997 51.1799 21.8957 51.2279 21.6797 51.6119C20.3957 53.9279 19.0757 56.2319 17.7917 58.5479C17.4557 59.1599 17.0597 59.6759 16.4237 59.9879C16.1237 59.9999 15.8117 59.9999 15.4997 59.9999Z" fill="#81888D"/>
    <path d="M31.2914 0C31.6634 0.084 32.0474 0.168 32.4194 0.264C33.8954 0.672 35.1554 1.428 36.2474 2.532C36.5474 2.832 36.9554 3.036 37.3514 3.204C38.8754 3.84 40.4114 4.44 41.9354 5.052C42.0794 5.112 42.1994 5.208 42.3794 5.316C41.4194 6.372 40.8554 7.584 40.6874 8.988C38.4794 9.3 36.8354 10.428 35.7314 12.396C33.9914 11.808 32.2034 11.472 30.3554 11.472C28.5314 11.472 26.7554 11.796 25.1714 12.336C24.3794 11.544 23.7314 10.68 22.8914 10.104C22.0634 9.54 21.0434 9.252 20.0354 8.808C19.8794 8.316 19.7354 7.644 19.4474 7.032C19.1714 6.432 18.7754 5.904 18.3794 5.268C18.8114 5.052 19.2674 4.764 19.7594 4.584C21.0434 4.08 22.3514 3.624 23.6354 3.144C23.8274 3.072 24.0554 2.988 24.1874 2.844C25.5554 1.308 27.2354 0.372 29.2634 0.072C29.3234 0.06 29.3714 0.024 29.4194 0C30.0434 0 30.6674 0 31.2914 0Z" fill="#81888D"/>
    <path d="M3.94336 33.3599C5.25136 33.6239 6.51136 33.8519 7.77136 34.1159C12.2234 35.0519 16.6994 35.1119 21.1994 34.6439C24.7394 34.2719 28.2914 33.9719 31.8434 33.6359C35.8634 33.2519 39.8714 32.9039 43.8914 32.4959C46.9154 32.1839 49.9274 32.2199 52.9394 32.5199C54.1994 32.6399 55.4594 32.7359 56.7554 32.8439C56.7554 35.4119 56.7554 37.9559 56.7554 40.5479C55.6154 40.4519 54.4874 40.3919 53.3714 40.2719C49.6754 39.8639 45.9794 39.9599 42.2834 40.3559C38.7554 40.7279 35.2274 41.0279 31.6994 41.3639C27.6794 41.7479 23.6714 42.1079 19.6514 42.5039C15.6674 42.8879 11.7194 42.6479 7.79536 41.7959C6.52336 41.5199 5.23936 41.2799 3.94336 41.0159C3.94336 38.4839 3.94336 35.9639 3.94336 33.3599Z" fill="#81888D"/>
    <path d="M13.7954 6.8999C15.5114 6.8999 16.7834 8.4359 16.4714 10.1279C16.4114 10.4759 16.3154 10.8239 16.3634 11.1599C16.5074 12.2639 17.4794 12.8519 18.6674 12.5999C20.2754 12.2519 21.7154 13.1039 22.0514 14.5919C22.5194 16.6199 20.7914 18.3239 18.7274 17.8679C17.4794 17.6039 16.5074 18.1679 16.3634 19.2959C16.3154 19.6319 16.4114 19.9919 16.4714 20.3279C16.7354 21.7679 15.8714 23.1239 14.4314 23.4839C13.0754 23.8319 11.5634 23.0159 11.2154 21.6479C11.0714 21.0959 11.1434 20.4479 11.2274 19.8719C11.3954 18.7559 10.6274 17.7839 9.51137 17.7839C9.25938 17.7839 9.00737 17.8439 8.76737 17.8919C7.61537 18.1079 6.49937 17.6399 5.88737 16.6559C5.28737 15.6959 5.32337 14.4839 6.01937 13.5839C6.75137 12.6359 7.74737 12.2759 8.87537 12.5879C10.4594 13.0199 11.5394 11.6639 11.1914 10.2839C10.7234 8.4719 12.0074 6.8999 13.7954 6.8999ZM15.5354 15.2159C15.5354 14.2439 14.7554 13.4759 13.7834 13.4759C12.8234 13.4759 12.0434 14.2679 12.0554 15.2399C12.0554 16.2119 12.8474 16.9919 13.8074 16.9919C14.7674 16.9799 15.5474 16.1879 15.5354 15.2159Z" fill="#81888D"/>
    <path d="M46.9156 6.89997C48.6316 6.89997 49.8916 8.44797 49.5796 10.14C49.5196 10.476 49.4236 10.836 49.4716 11.172C49.6156 12.276 50.5876 12.852 51.7876 12.6C53.3836 12.252 54.8236 13.116 55.1596 14.604C55.6156 16.632 53.8876 18.312 51.8236 17.868C50.6116 17.604 49.6516 18.144 49.4836 19.248C49.4356 19.584 49.5196 19.944 49.5796 20.28C49.8556 21.744 49.0276 23.088 47.5996 23.472C46.2436 23.844 44.7796 23.112 44.3836 21.744C44.2156 21.156 44.2756 20.484 44.3596 19.86C44.5036 18.768 43.7716 17.796 42.6796 17.784C42.4156 17.784 42.1396 17.844 41.8756 17.892C40.5316 18.144 39.2476 17.436 38.7676 16.176C38.2876 14.916 38.8036 13.512 39.9676 12.84C40.5916 12.48 41.2876 12.36 41.9476 12.576C43.3516 13.044 44.7196 11.88 44.2876 10.212C43.8316 8.45997 45.1516 6.88797 46.9156 6.89997ZM48.6436 15.24C48.6556 14.268 47.8876 13.488 46.9156 13.476C45.9556 13.464 45.1636 14.244 45.1636 15.216C45.1516 16.188 45.9316 16.98 46.8916 16.992C47.8516 16.992 48.6436 16.2 48.6436 15.24Z" fill="#81888D"/>
    <path d="M14.3476 27.072C14.5156 28.548 14.6836 29.952 14.8636 31.464C13.6636 31.356 12.4396 31.32 11.2396 31.128C8.73161 30.708 6.23561 30.204 3.72761 29.748C3.39161 29.688 3.24761 29.52 3.18761 29.184C2.58761 26.124 3.42761 23.52 5.69561 21.384C5.85161 21.24 6.16361 21.204 6.40361 21.216C7.26761 21.252 7.62761 21.672 7.85561 22.584C8.50361 25.224 10.9996 27.036 13.7356 27.072C13.9396 27.084 14.1556 27.072 14.3476 27.072Z" fill="#81888D"/>
    <path d="M46.2676 28.6321C46.2676 28.2121 46.2676 27.6721 46.2676 27.1681C47.0596 27.0601 47.8276 27.0481 48.5356 26.8441C51.0316 26.1241 52.5196 24.4441 53.0356 21.9121C53.1076 21.5521 53.2756 21.4921 53.5636 21.3601C54.5716 20.9041 55.1716 21.3961 55.7596 22.1161C57.4756 24.2401 58.0516 26.6041 57.4876 29.2801C53.7196 29.0641 50.0116 28.8481 46.2676 28.6321Z" fill="#81888D"/>
</svg>
